<?xml version="1.0" standalone="no"?>
<!DOCTYPE svg PUBLIC "-//W3C//DTD SVG 20010904//EN"
 "http://www.w3.org/TR/2001/REC-SVG-20010904/DTD/svg10.dtd">
<svg version="1.0" xmlns="http://www.w3.org/2000/svg"
 width="2048.000000pt" height="2048.000000pt" viewBox="0 0 2048.000000 2048.000000"
 preserveAspectRatio="xMidYMid meet">
<metadata>
Created by potrace 1.14, written by Peter Selinger 2001-2017
</metadata>
<g transform="translate(0.000000,2048.000000) scale(0.100000,-0.100000)"
fill="#000000" stroke="none">
<path d="M1289 12479 c-8 -5 -11 -9 -7 -9 4 0 4 -10 -1 -22 -5 -13 -5 -33 0
-45 4 -12 4 -25 0 -28 -5 -3 -5 -21 -1 -40 4 -19 5 -35 1 -35 -7 0 -6 -133 1
-146 3 -5 2 -18 -2 -29 -4 -11 -4 -30 1 -42 5 -12 4 -25 0 -28 -5 -3 -5 -21
-1 -40 4 -19 4 -35 0 -35 -4 0 -4 -16 0 -35 4 -19 5 -35 1 -35 -3 0 -6 -15 -6
-32 0 -32 -1 -33 -48 -35 -27 -1 -55 -4 -63 -7 -8 -3 -14 -1 -14 4 0 5 -13 5
-30 0 -17 -5 -32 -5 -35 0 -3 6 -16 5 -29 0 -13 -5 -26 -6 -30 -3 -8 8 -206 9
-206 2 0 -4 -16 -3 -35 1 -19 4 -37 4 -40 -1 -3 -4 -16 -4 -29 1 -13 5 -26 7
-28 5 -2 -3 -15 -7 -29 -9 -13 -2 -25 -5 -26 -5 -1 -1 2 -14 7 -30 4 -15 5
-34 1 -40 -4 -7 -5 -32 -1 -56 4 -25 4 -45 1 -45 -7 0 -4 -107 3 -126 2 -6 1
-28 -4 -48 -4 -20 -4 -38 0 -41 4 -3 5 -20 1 -38 -5 -18 -5 -41 -1 -52 4 -11
5 -24 3 -28 -7 -12 -7 -116 -1 -123 3 -3 2 -21 -2 -40 -4 -19 -4 -36 0 -39 4
-3 4 -21 0 -40 -4 -19 -4 -37 0 -40 4 -3 4 -21 0 -40 -4 -19 -4 -37 1 -40 4
-3 6 -12 3 -20 -8 -20 -10 -165 -3 -165 3 0 3 -22 -1 -49 -3 -27 -3 -57 1 -68
3 -10 3 -27 -1 -38 -4 -11 -4 -32 1 -47 4 -15 4 -30 -1 -33 -5 -3 -5 -18 0
-34 4 -15 4 -34 0 -41 -4 -7 -4 -25 0 -41 5 -15 6 -30 3 -33 -7 -6 -7 -212 0
-223 2 -4 1 -17 -3 -28 -4 -11 -4 -34 1 -52 4 -18 4 -33 0 -33 -7 0 -6 -94 2
-114 3 -7 2 -19 -3 -26 -4 -7 -4 -25 0 -40 4 -15 4 -33 0 -40 -4 -7 -4 -25 0
-41 5 -15 6 -30 2 -33 -3 -3 -5 -25 -4 -49 4 -143 4 -166 -2 -176 -4 -5 -2
-12 3 -15 5 -3 5 -20 2 -38 -4 -18 -4 -50 0 -70 3 -21 4 -38 0 -38 -8 0 -6
-74 2 -87 9 -14 56 -23 63 -12 2 4 11 6 20 2 21 -8 374 -10 374 -2 0 4 16 3
35 -1 19 -4 37 -4 40 1 3 4 16 5 28 0 12 -5 31 -5 42 -1 11 4 25 6 30 3 11 -3
12 125 2 152 -4 8 -2 17 3 20 5 3 5 18 0 35 -5 17 -5 30 0 30 5 0 5 13 0 30
-5 17 -5 30 0 30 5 0 5 13 0 30 -5 17 -5 30 0 30 5 0 5 13 0 30 -5 17 -5 30 0
30 5 0 5 13 0 30 -5 17 -5 30 0 30 5 0 5 13 0 30 -5 17 -5 30 0 30 5 0 5 13 0
30 -5 17 -5 30 0 30 5 0 5 13 0 30 -5 17 -5 30 0 30 5 0 5 13 0 30 -5 17 -5
30 0 30 5 0 5 13 0 30 -5 17 -5 30 0 30 5 0 5 13 0 30 -5 17 -5 30 0 30 5 0 5
13 0 30 -5 17 -5 30 0 30 5 0 5 13 0 30 -5 17 -5 30 0 30 5 0 5 13 0 30 -5 17
-5 30 0 30 5 0 5 13 0 30 -5 17 -5 30 0 30 5 0 5 13 0 30 -5 17 -5 30 0 30 5
0 5 13 0 30 -5 17 -5 30 0 30 5 0 5 13 0 30 -5 18 -5 30 0 30 6 0 6 10 0 25
-5 14 -5 27 0 30 5 3 5 18 0 35 -5 17 -5 30 0 30 5 0 5 13 0 30 -5 17 -5 30 0
30 5 0 5 13 0 30 -5 17 -5 30 0 30 5 0 5 13 0 30 -5 17 -5 30 0 30 5 0 5 13 0
30 -5 17 -5 30 0 30 5 0 5 13 0 30 -5 17 -5 30 0 30 5 0 5 13 0 30 -5 17 -5
30 0 30 5 0 5 13 0 30 -5 17 -5 30 0 30 5 0 5 13 0 30 -5 17 -5 30 0 30 5 0 5
13 0 30 -5 18 -5 30 0 30 6 0 6 10 0 25 -5 14 -5 27 0 30 5 3 5 18 0 35 -5 17
-5 30 0 30 5 0 5 13 0 30 -5 17 -5 30 0 30 5 0 5 13 0 30 -5 17 -5 30 0 30 5
0 6 12 2 28 -6 24 -7 54 -2 75 4 19 2 138 -3 143 -3 3 -2 16 3 28 4 12 4 29 0
37 -5 8 -5 21 0 29 4 7 4 24 0 36 -6 14 -5 26 0 29 6 4 10 2 10 -4 0 -6 11 -6
30 -1 17 5 32 5 35 0 3 -5 16 -5 30 0 15 6 27 6 30 0 3 -6 15 -6 30 0 15 6 27
6 30 0 3 -6 15 -6 29 0 13 5 26 6 29 3 8 -7 127 -9 127 -1 0 4 13 3 29 -2 15
-4 34 -4 41 0 7 5 23 5 34 0 12 -4 30 -4 42 0 11 5 27 5 34 0 7 -4 25 -4 40 0
23 7 29 4 38 -14 6 -13 6 -29 2 -36 -5 -7 -4 -23 0 -36 5 -12 6 -25 2 -28 -7
-8 -6 -92 2 -105 4 -5 3 -12 -2 -15 -5 -3 -6 -27 -2 -54 3 -27 3 -58 -1 -68
-3 -11 -3 -29 2 -40 4 -12 5 -25 2 -28 -8 -8 -9 -86 -2 -86 4 0 4 -15 0 -33
-5 -18 -5 -41 -1 -52 4 -11 3 -25 -2 -32 -5 -7 -5 -14 1 -17 6 -4 7 -15 2 -29
-5 -12 -5 -32 0 -44 4 -12 4 -25 0 -28 -5 -3 -5 -21 -1 -40 4 -19 5 -35 1 -35
-8 0 -6 -433 2 -454 4 -9 2 -18 -3 -21 -5 -3 -5 -18 0 -35 5 -17 6 -30 2 -30
-6 0 -7 -128 -2 -155 1 -5 1 -14 0 -20 -2 -14 -2 -208 0 -220 1 -5 1 -14 0
-20 -4 -21 -1 -106 5 -115 3 -6 2 -10 -4 -10 -6 0 -6 -11 -1 -30 5 -16 6 -30
2 -30 -8 0 -7 -154 2 -175 3 -8 2 -17 -3 -19 -4 -3 -5 -27 -1 -54 3 -27 3 -58
-1 -68 -3 -11 -3 -29 2 -40 4 -12 5 -25 2 -28 -4 -3 -5 -27 -4 -54 1 -26 2
-51 2 -57 0 -5 -1 -31 -3 -57 -2 -25 -2 -45 0 -43 2 2 17 -1 33 -5 16 -5 31
-5 34 0 3 5 12 7 21 3 21 -8 374 -10 374 -2 0 4 16 3 35 -1 19 -4 37 -4 40 1
3 4 16 5 28 0 12 -5 31 -5 42 -1 11 4 23 6 28 3 7 -4 9 37 7 132 -1 55 -1 61
0 123 0 23 -2 47 -5 52 -4 6 -3 10 2 10 4 0 7 24 5 52 -1 29 -3 60 -3 68 0 8
1 34 1 58 0 23 -2 47 -5 52 -4 6 -3 10 2 10 4 0 8 20 8 45 0 25 -3 45 -6 45
-4 0 -3 17 0 38 4 20 4 54 1 75 -4 20 -4 37 -1 37 7 0 6 99 -2 106 -3 3 -2 17
2 32 4 15 4 44 1 64 -4 21 -5 38 -1 38 3 0 5 24 3 52 -3 56 -3 63 -2 119 1 19
0 39 -1 45 -1 5 0 14 1 19 4 25 0 226 -5 235 -3 6 -3 10 2 10 4 0 7 24 5 52
-1 29 -3 60 -3 68 0 8 1 34 1 58 0 23 -2 47 -5 52 -4 6 -3 10 2 10 4 0 7 24 5
52 -1 29 -3 59 -3 66 0 6 0 28 0 47 0 19 0 43 0 53 2 187 2 239 1 247 -2 6 -2
13 0 18 1 4 1 27 1 52 0 25 0 48 -1 53 -2 4 -2 11 -1 15 1 5 2 51 2 103 0 52
3 94 7 95 4 0 15 2 25 4 9 2 17 0 17 -3 0 -4 11 -7 25 -7 14 0 25 3 25 7 0 4
14 3 30 -2 19 -5 30 -5 30 1 0 6 4 8 10 4 13 -8 118 -10 126 -3 3 4 17 3 30
-2 14 -6 26 -6 29 0 3 6 15 6 30 0 15 -6 27 -6 30 0 3 6 15 6 30 0 15 -6 27
-6 30 0 3 6 15 6 30 0 15 -6 27 -6 30 1 4 5 12 6 18 2 6 -4 28 -6 48 -4 34 2
36 1 38 -31 1 -18 2 -40 2 -48 -2 -56 0 -114 4 -121 3 -4 2 -10 -2 -12 -5 -3
-6 -42 -3 -87 3 -45 3 -83 1 -86 -6 -5 -5 -94 1 -100 3 -3 2 -19 -1 -37 -4
-18 -4 -44 0 -58 3 -15 3 -32 -1 -39 -4 -7 -4 -27 0 -46 4 -18 5 -36 2 -39 -5
-4 -6 -117 -1 -141 1 -5 1 -13 0 -19 -1 -5 -2 -53 -1 -105 0 -52 0 -117 -1
-145 0 -27 -1 -56 0 -62 1 -16 2 -33 2 -80 0 -40 0 -48 -4 -131 -1 -28 1 -52
4 -52 3 0 3 -20 -1 -43 -3 -24 -4 -52 0 -61 3 -9 3 -44 0 -77 -3 -32 -3 -59 1
-59 3 0 3 -20 -1 -43 -3 -24 -3 -52 0 -63 4 -10 4 -30 0 -44 -4 -14 -4 -36 0
-50 4 -14 4 -34 0 -44 -4 -11 -3 -37 0 -58 4 -21 5 -38 1 -38 -3 0 -6 -31 -6
-70 0 -38 2 -70 5 -70 3 0 3 -29 0 -65 -3 -36 -2 -65 3 -65 4 0 6 -4 2 -9 -4
-8 -6 -45 -4 -121 0 -8 -1 -41 -3 -73 -3 -57 -2 -58 27 -66 17 -4 35 -4 41 0
6 5 14 6 17 3 8 -8 377 -11 377 -3 0 4 16 3 35 -1 19 -4 37 -4 40 1 3 4 16 5
28 0 12 -5 31 -5 42 -1 11 4 25 6 30 4 6 -3 10 12 10 31 0 19 -3 35 -7 35 -4
0 -3 12 1 28 4 15 4 39 0 55 -4 15 -4 27 -1 27 4 0 7 29 7 65 0 36 -3 65 -7
65 -4 0 -3 12 1 28 4 15 4 39 0 55 -4 15 -4 27 -1 27 4 0 7 29 7 65 0 36 -3
65 -7 65 -4 0 -3 12 1 28 5 15 5 37 0 49 -4 12 -4 25 1 28 5 3 5 18 0 35 -5
17 -6 30 -2 30 4 0 7 16 7 35 0 19 -3 35 -7 35 -4 0 -3 12 1 28 4 15 4 39 0
55 -4 15 -4 27 -1 27 4 0 7 29 7 65 0 36 -3 65 -7 65 -4 0 -3 12 1 28 4 15 4
39 0 55 -4 15 -4 27 -1 27 8 0 7 188 -1 196 -3 3 -2 16 2 28 5 11 5 30 1 41
-4 11 -5 24 -2 29 8 14 8 76 0 76 -4 0 -3 12 1 28 4 15 4 39 0 55 -4 15 -4 27
-1 27 4 0 7 29 7 65 0 36 -3 65 -7 65 -4 0 -3 12 1 28 4 15 4 39 0 55 -4 15
-3 27 1 27 5 0 5 14 0 30 -5 18 -5 30 0 30 6 0 6 10 0 24 -5 13 -6 27 -3 30 4
4 6 25 5 49 -2 23 -2 48 -2 55 0 6 0 23 0 37 0 14 0 33 0 43 0 9 0 28 -1 42
-2 31 -2 49 0 80 1 14 1 33 1 43 0 9 0 40 0 67 0 28 -1 56 -1 63 0 6 1 33 3
59 2 25 2 45 0 43 -2 -2 -17 1 -33 5 -16 5 -29 5 -29 0 0 -5 -13 -5 -30 0 -17
5 -30 5 -30 0 0 -5 -13 -5 -30 0 -17 5 -30 5 -30 0 0 -5 -13 -5 -30 0 -19 5
-30 5 -30 -1 0 -6 -4 -7 -10 -4 -13 8 -118 10 -126 3 -3 -4 -18 -3 -33 2 -16
4 -34 4 -41 0 -7 -5 -23 -5 -34 0 -12 4 -30 4 -42 0 -11 -5 -27 -5 -34 0 -7 4
-26 4 -41 0 -26 -8 -30 -6 -35 18 -3 15 -7 32 -9 39 -2 6 -1 14 2 17 3 3 5 49
4 103 -1 54 -2 104 -2 111 0 6 0 59 0 117 0 58 0 113 1 123 0 9 0 31 -1 47 0
17 0 38 0 48 0 16 -7 18 -45 15 -24 -2 -44 -1 -44 2 0 6 -86 4 -104 -3 -7 -3
-18 -2 -25 2 -7 5 -30 5 -52 1 -21 -4 -39 -5 -39 -1 0 7 -78 6 -86 -1 -3 -3
-19 -3 -37 1 -18 4 -47 4 -64 0 -18 -3 -33 -4 -33 0 0 8 -95 5 -109 -3 -6 -4
-7 -16 -2 -29 4 -12 5 -33 1 -47 -3 -14 -3 -40 1 -57 4 -18 4 -33 0 -33 -3 0
-5 -24 -3 -52 3 -61 3 -64 2 -123 -1 -24 1 -49 5 -55 3 -5 3 -10 -2 -10 -4 0
-7 -24 -5 -52 3 -61 3 -63 2 -125 -2 -55 -10 -63 -54 -54 -17 4 -46 4 -63 0
-18 -3 -33 -3 -33 2 0 4 -13 4 -30 -1 -17 -5 -30 -5 -30 0 0 5 -13 5 -30 0
-17 -5 -30 -5 -30 0 0 5 -13 5 -30 0 -17 -5 -30 -5 -30 0 0 5 -13 5 -30 0 -17
-5 -32 -5 -35 0 -3 5 -15 6 -29 0 -12 -4 -29 -4 -36 0 -8 5 -21 5 -30 0 -9 -5
-22 -5 -30 0 -8 5 -21 5 -31 0 -9 -5 -19 -7 -23 -3 -3 3 -17 6 -31 7 -14 1
-24 3 -23 6 1 3 -4 14 -10 26 -6 12 -7 26 -2 34 5 8 5 21 0 30 -5 9 -5 22 0
30 5 8 5 21 0 30 -5 9 -5 22 0 30 5 8 5 21 0 30 -5 9 -5 22 0 30 5 8 5 21 0
30 -5 9 -5 22 0 30 4 7 4 23 0 36 -5 12 -6 25 -3 28 8 8 9 76 1 76 -4 0 -3 14
2 30 5 17 6 30 2 30 -4 0 -7 16 -7 35 0 19 3 35 6 35 10 0 -2 50 -14 57 -13 8
-87 10 -87 2 0 -4 -17 -3 -37 0 -21 4 -53 4 -71 0 -18 -3 -34 -3 -37 1 -3 4
-22 4 -42 0 -20 -5 -41 -6 -45 -4 -12 7 -227 8 -234 1 -4 -3 -16 -2 -28 3 -13
5 -29 4 -37 -1z"/>
<path d="M5124 12473 c-10 -11 -12 -19 -4 -27 5 -7 7 -15 4 -18 -8 -9 -10 -98
-2 -98 4 0 5 -7 2 -15 -9 -23 -10 -225 -1 -225 5 0 5 -5 2 -10 -6 -10 -8 -95
-6 -204 1 -36 3 -38 26 -32 14 4 25 2 25 -3 0 -6 11 -6 29 -1 15 4 34 4 42 0
7 -5 20 -5 29 0 9 5 22 5 30 0 8 -5 21 -5 30 0 9 5 22 5 29 0 8 -4 27 -4 42 0
16 5 29 5 29 0 0 -5 13 -5 30 0 17 5 30 5 30 0 0 -5 13 -5 30 0 17 5 30 5 30
0 0 -5 13 -5 30 0 17 5 30 5 30 0 0 -5 13 -5 30 0 17 5 30 6 30 2 0 -6 118 -7
145 -2 6 1 13 1 18 0 18 -4 138 -2 143 3 3 3 16 2 29 -3 13 -5 25 -6 28 -4 9
9 70 10 100 3 15 -4 27 -4 27 1 0 5 13 5 30 0 17 -5 32 -5 35 0 3 5 16 5 28 1
12 -5 34 -5 49 0 16 4 28 4 28 1 0 -4 15 -7 33 -7 30 0 32 -2 32 -38 0 -20 3
-37 6 -37 4 0 3 -16 -1 -35 -4 -19 -4 -37 0 -40 4 -3 4 -21 0 -40 -4 -19 -4
-37 0 -40 4 -3 5 -20 1 -37 -7 -32 -5 -92 3 -114 2 -6 1 -17 -4 -24 -4 -7 -4
-25 0 -41 5 -15 6 -30 3 -33 -7 -7 -10 -96 -3 -96 4 0 4 -65 0 -80 -4 -14 -2
-162 2 -166 3 -2 2 -21 -2 -42 -3 -20 -3 -49 1 -64 4 -15 5 -29 2 -32 -8 -7
-9 -96 -2 -96 3 0 3 -19 -1 -43 -3 -24 -3 -55 1 -70 4 -15 4 -29 -1 -32 -4 -2
-4 -23 0 -45 4 -22 5 -40 1 -40 -7 0 -5 -116 3 -135 2 -7 2 -16 -1 -19 -7 -7
-10 -96 -3 -96 3 0 3 -27 0 -61 -3 -33 -3 -62 1 -65 4 -2 4 -19 0 -36 -4 -18
-4 -45 0 -60 4 -15 4 -30 1 -33 -4 -3 -5 -33 -4 -66 l2 -60 -55 2 c-30 1 -57
0 -60 -2 -3 -3 -27 -3 -55 1 -27 3 -55 3 -61 -1 -6 -3 -23 -3 -38 0 -14 4 -43
4 -63 1 -21 -4 -38 -5 -38 -1 0 3 -24 5 -52 3 -68 -4 -119 -2 -129 4 -4 2 -10
0 -13 -5 -3 -5 -21 -5 -41 -1 -19 4 -35 4 -35 0 0 -4 -15 -5 -32 -1 -18 4 -47
4 -65 0 -18 -3 -35 -4 -37 -1 -7 7 -106 8 -106 1 0 -4 -17 -3 -38 1 -20 3 -49
3 -63 -1 -15 -3 -32 -3 -38 0 -6 4 -34 4 -61 1 -28 -4 -50 -3 -50 0 0 4 -18 4
-40 0 -22 -4 -40 -4 -40 -1 0 4 -16 5 -35 3 -23 -3 -35 -10 -36 -21 -4 -59 -3
-91 3 -91 4 0 5 -6 2 -14 -8 -20 -10 -106 -3 -106 4 0 4 -15 0 -32 -4 -18 -4
-45 0 -60 4 -15 4 -29 1 -32 -3 -4 -5 -30 -3 -59 2 -64 2 -61 -1 -120 -2 -26
-1 -47 2 -47 4 0 4 -17 2 -37 -4 -31 -2 -36 9 -27 8 7 23 8 34 4 11 -4 34 -4
52 1 18 4 33 4 33 0 0 -7 73 -6 86 1 5 3 18 2 29 -2 11 -4 29 -4 40 -1 11 4
31 6 45 4 21 -2 75 -3 140 -3 8 1 63 0 123 -1 59 -1 110 0 113 4 3 3 12 3 20
0 21 -8 374 -9 374 -2 0 4 16 3 35 -1 19 -4 37 -4 40 1 3 4 16 4 29 -1 13 -5
26 -7 28 -5 2 3 15 7 29 9 13 2 25 5 25 5 1 1 -2 17 -6 36 -4 19 -5 35 -1 35
3 0 5 24 3 52 -2 29 -3 60 -3 68 2 102 2 217 1 225 -1 6 -2 12 -1 15 5 13 5
110 1 110 -4 0 -4 22 -1 76 1 15 39 25 47 13 3 -6 11 -5 20 2 8 6 14 8 14 3 0
-5 24 -8 52 -6 29 2 64 2 78 2 14 -1 32 -1 40 -1 48 2 124 0 131 -5 5 -3 9 0
9 6 0 6 4 8 10 5 5 -3 60 -6 121 -7 94 -1 113 2 121 15 6 11 5 17 -2 17 -6 0
-8 5 -5 11 7 10 10 171 5 194 -1 6 -1 15 0 20 2 14 2 208 0 220 -1 6 -1 15 0
20 4 21 1 106 -5 115 -3 6 -2 10 4 10 6 0 6 11 1 30 -5 17 -6 30 -2 30 8 0 7
154 -2 175 -3 8 -2 17 3 19 4 3 5 27 1 54 -3 27 -3 58 1 68 3 11 3 29 -2 40
-4 12 -5 25 -2 28 8 7 7 141 0 153 -3 5 -2 15 3 23 4 7 5 23 0 34 -4 12 -4 30
0 41 4 11 4 30 -1 41 -4 12 -5 25 -2 28 5 5 7 125 3 144 -1 4 -1 12 0 17 4 21
2 186 -3 191 -3 3 -2 18 2 32 4 15 4 39 0 54 -4 16 -3 30 1 33 5 3 5 18 0 34
-4 16 -7 31 -5 33 2 2 -12 3 -31 3 -19 0 -34 -3 -34 -6 0 -4 -16 -3 -35 1 -19
4 -35 4 -35 0 0 -4 -16 -4 -35 0 -19 4 -37 4 -40 -1 -3 -4 -16 -4 -29 1 -13 5
-26 6 -29 4 -9 -9 -70 -10 -99 -3 -16 4 -28 4 -28 -1 0 -5 -13 -5 -30 0 -17 5
-32 5 -35 0 -3 -5 -16 -5 -28 -1 -12 5 -34 5 -49 0 -16 -4 -28 -4 -28 -1 0 4
-15 7 -32 7 -31 0 -33 2 -33 38 0 20 -3 37 -6 37 -4 0 -3 16 1 35 4 19 4 37 0
40 -4 3 -4 21 0 40 4 19 4 37 0 40 -5 3 -5 18 0 34 4 15 4 34 0 41 -4 6 -4 27
0 46 5 19 4 37 -1 40 -5 3 -7 10 -3 15 10 17 7 210 -3 220 -8 8 -118 15 -148
9 -5 -1 -14 -1 -20 0 -25 5 -204 2 -213 -4 -6 -3 -13 -2 -16 3 -3 5 -21 5 -41
1 -19 -4 -37 -4 -40 0 -3 4 -21 4 -40 0 -19 -4 -37 -4 -40 1 -3 4 -11 6 -19 3
-17 -7 -146 -10 -146 -4 0 6 -86 4 -104 -3 -7 -3 -18 -2 -25 2 -7 5 -30 5 -52
1 -21 -4 -39 -5 -39 -1 0 8 -78 6 -86 -2 -3 -3 -11 -4 -18 -1 -19 7 -126 10
-126 3 0 -4 -18 -3 -41 1 -30 6 -44 4 -55 -7z"/>
<path d="M8360 12482 c-40 -6 -49 -19 -40 -57 4 -19 5 -36 2 -39 -5 -5 -6 -76
-2 -93 1 -5 1 -12 0 -18 -1 -5 -1 -29 0 -52 0 -24 1 -51 0 -60 -1 -66 -1 -141
1 -149 1 -5 0 -13 -1 -19 -1 -5 -1 -30 0 -55 0 -25 1 -57 0 -71 0 -15 7 -29
15 -33 8 -3 15 -1 15 4 0 5 12 5 29 0 15 -4 34 -4 41 0 7 5 20 6 28 2 20 -7
80 -7 88 1 3 3 16 2 29 -3 13 -5 25 -6 28 -4 9 9 70 10 100 3 15 -4 27 -4 27
1 0 5 13 5 30 0 17 -5 30 -5 30 0 0 5 13 5 30 0 17 -5 30 -5 30 0 0 5 13 5 30
0 17 -5 30 -5 30 0 0 5 13 5 30 0 17 -5 30 -5 30 0 0 5 13 5 30 0 17 -5 30 -5
30 0 0 5 13 5 30 0 17 -5 30 -5 30 0 0 5 13 5 30 0 17 -5 30 -5 30 0 0 5 13 5
30 0 19 -5 30 -5 30 1 0 6 5 7 11 4 10 -7 102 -10 124 -5 6 1 13 1 18 0 17 -4
135 -3 143 2 5 3 18 2 29 -2 11 -4 30 -4 43 1 21 8 26 5 23 -13 0 -5 3 -8 8
-8 5 0 5 -15 1 -35 -4 -19 -4 -37 0 -40 5 -3 5 -17 1 -33 -4 -15 -4 -44 -1
-64 4 -21 4 -38 1 -38 -4 0 -4 -24 -1 -53 3 -29 3 -64 -1 -78 -3 -13 -3 -31 1
-39 4 -8 4 -24 0 -35 -4 -11 -4 -29 0 -41 5 -11 5 -27 0 -34 -5 -7 -5 -23 0
-34 4 -12 4 -30 0 -41 -4 -11 -4 -27 1 -36 9 -17 59 -32 59 -18 0 4 14 4 30
-1 17 -5 30 -5 30 0 0 5 13 5 30 0 17 -5 30 -5 30 0 0 5 13 5 30 0 19 -5 30
-5 30 1 0 6 4 7 10 4 13 -8 118 -10 126 -3 3 4 18 3 33 -2 16 -4 34 -4 41 0 7
5 23 5 34 0 12 -4 30 -4 42 0 11 5 27 5 34 0 7 -4 26 -4 41 0 16 5 29 6 29 2
0 -4 4 0 9 7 6 9 6 22 1 31 -5 9 -5 22 0 30 5 8 5 21 0 30 -5 9 -5 22 0 30 5
8 5 21 0 30 -5 9 -5 22 0 30 5 8 5 21 0 30 -5 9 -5 22 0 30 5 8 5 21 0 30 -5
9 -5 22 0 30 5 8 5 21 0 30 -5 9 -5 22 0 30 5 8 5 21 0 29 -4 9 -4 23 0 31 5
9 5 22 0 30 -4 7 -4 24 0 36 6 14 5 26 0 29 -5 3 -5 18 0 35 5 17 5 30 1 30
-4 0 -7 10 -7 22 1 13 -4 23 -11 23 -6 0 -14 3 -18 7 -4 4 -17 3 -29 -2 -13
-4 -29 -4 -36 0 -8 5 -18 6 -23 3 -13 -8 -87 -9 -87 -1 0 4 -13 3 -30 -2 -17
-5 -30 -5 -30 0 0 5 -13 5 -30 0 -17 -5 -30 -5 -30 0 0 5 -13 5 -30 0 -17 -5
-32 -5 -35 0 -3 5 -15 6 -29 0 -12 -4 -29 -4 -36 0 -8 5 -21 5 -30 0 -9 -5
-22 -5 -30 0 -8 5 -21 5 -31 0 -9 -5 -19 -7 -23 -3 -3 3 -18 6 -33 7 -16 1
-27 6 -27 11 1 6 -2 20 -7 31 -4 12 -5 25 -2 28 4 4 6 25 5 49 -2 23 -2 49 -2
57 0 8 0 38 1 67 0 29 -2 57 -6 63 -3 5 -3 10 2 10 4 0 8 16 8 35 0 19 -3 35
-7 35 -4 0 -3 13 2 28 4 16 4 35 -1 43 -4 8 -4 21 0 28 5 7 5 30 1 52 -4 21
-4 39 0 39 10 0 0 49 -13 57 -12 7 -85 8 -93 1 -3 -3 -19 -3 -37 1 -18 4 -47
4 -65 0 -18 -3 -34 -3 -37 1 -3 4 -22 4 -42 0 -20 -5 -41 -6 -45 -4 -8 5 -200
8 -223 4 -5 -2 -14 -2 -20 0 -12 2 -207 2 -220 0 -5 -2 -14 -1 -20 0 -24 5
-204 2 -213 -4 -6 -3 -13 -2 -16 3 -3 5 -21 5 -41 1 -19 -4 -37 -4 -40 0 -3 4
-20 4 -39 0 -19 -4 -38 -4 -43 -1 -4 4 -19 5 -33 3z"/>
<path d="M11528 12479 c-6 -4 -9 -21 -6 -38 2 -17 2 -31 -1 -31 -3 0 -5 -42
-4 -92 3 -126 3 -126 3 -182 0 -26 3 -52 6 -57 3 -5 1 -9 -3 -9 -5 0 -6 -27
-3 -60 3 -34 4 -63 1 -66 -3 -2 -4 -27 -2 -54 1 -28 -1 -50 -6 -51 -4 0 -16
-2 -25 -4 -10 -2 -18 0 -18 3 0 4 -11 7 -25 7 -14 0 -25 -4 -25 -8 0 -5 -5 -5
-10 -2 -9 5 -166 10 -180 5 -17 -5 -80 -4 -80 2 0 4 -13 3 -30 -2 -17 -5 -30
-5 -30 0 0 5 -13 5 -30 0 -16 -5 -30 -6 -30 -2 0 4 -32 6 -71 6 -72 -2 -99
-15 -79 -40 6 -6 7 -13 4 -16 -8 -8 -10 -98 -2 -98 4 0 3 -12 -1 -27 -4 -16
-4 -40 0 -55 4 -16 4 -28 1 -28 -4 0 -7 -29 -7 -65 0 -36 3 -65 7 -65 4 0 3
-12 -1 -27 -4 -16 -4 -40 0 -55 4 -16 4 -28 1 -28 -8 0 -6 -86 3 -99 3 -5 1
-12 -4 -16 -7 -3 -7 -15 -1 -30 6 -15 6 -27 0 -30 -6 -3 -6 -15 0 -29 5 -13 6
-27 2 -30 -7 -8 -5 -123 3 -136 4 -6 2 -10 -3 -10 -5 0 -6 -19 -2 -43 3 -24 3
-55 -1 -69 -4 -14 -3 -31 1 -38 5 -8 5 -23 0 -34 -4 -12 -4 -30 0 -41 4 -11 5
-24 3 -28 -8 -14 -9 -147 -1 -147 4 0 3 -13 -2 -29 -4 -15 -4 -34 0 -41 5 -7
5 -23 0 -34 -4 -12 -4 -30 0 -42 5 -11 5 -27 0 -34 -4 -7 -4 -26 0 -41 5 -16
6 -29 2 -29 -4 0 -7 -16 -7 -35 0 -19 3 -35 7 -35 4 0 3 -13 -2 -29 -4 -15 -4
-34 0 -41 5 -7 5 -23 0 -34 -4 -12 -4 -30 0 -41 4 -11 5 -26 2 -34 -5 -13 -6
-72 -2 -88 1 -5 1 -18 0 -31 -1 -17 3 -23 17 -22 10 1 23 1 28 0 6 -1 30 -1
55 -1 54 2 44 2 200 2 138 0 131 0 215 -2 33 0 65 0 70 1 41 9 70 -24 55 -64
-3 -10 -3 -38 0 -62 4 -24 4 -44 1 -44 -7 0 -6 -99 1 -106 3 -2 2 -21 -1 -42
-4 -20 -4 -48 -1 -62 4 -14 3 -35 -1 -46 -4 -12 -6 -24 -4 -26 4 -4 6 -56 4
-108 -2 -70 3 -78 43 -82 22 -2 42 0 44 4 3 5 10 6 15 2 9 -5 83 -8 104 -4 6
1 15 1 20 0 23 -5 174 -2 183 4 6 3 13 2 16 -3 4 -6 18 -6 36 -1 17 5 30 6 30
2 0 -4 16 -7 35 -7 19 0 35 3 35 7 0 4 7 5 16 1 21 -8 204 -10 204 -2 0 4 16
3 35 -1 19 -4 37 -4 40 1 3 4 16 4 28 0 12 -5 31 -5 42 -2 11 4 31 6 45 4 21
-2 85 -4 140 -2 8 0 50 -1 93 -3 48 -2 76 1 74 7 -3 6 -1 19 3 30 4 11 4 30
-1 42 -5 12 -4 25 0 28 5 3 5 21 1 40 -4 19 -5 35 -1 35 7 0 6 133 -1 146 -3
5 -2 18 2 29 4 11 4 30 -1 41 -4 12 -5 25 -2 28 8 8 9 86 2 86 -4 0 -3 15 1
34 4 18 3 41 -2 49 -14 26 24 57 59 48 15 -4 45 -4 65 -1 21 4 38 5 38 1 0 -5
255 -6 270 0 3 1 9 1 14 0 13 -3 129 -3 141 -1 6 1 21 1 34 0 18 -1 22 2 18
14 -3 8 -2 18 3 21 5 3 5 18 0 35 -5 17 -5 30 -1 30 5 0 5 18 1 40 -4 22 -4
43 1 46 4 2 4 16 -1 29 -6 15 -6 27 0 30 5 3 6 15 1 27 -4 12 -5 38 -1 59 4
21 4 43 -1 50 -4 7 -4 20 1 29 5 9 5 22 0 30 -5 8 -5 21 0 30 5 9 5 22 0 30
-5 8 -5 21 0 30 5 9 5 22 0 30 -5 8 -5 21 0 30 5 9 5 22 0 30 -5 8 -5 21 0 30
5 9 5 22 0 30 -5 8 -5 21 0 30 4 8 4 22 0 31 -5 8 -5 21 0 29 5 8 5 21 0 30
-5 9 -5 22 0 30 5 8 5 21 0 30 -5 9 -5 22 0 30 5 8 5 21 0 30 -5 9 -5 22 0 30
4 7 4 23 0 36 -5 12 -6 25 -3 28 8 8 9 76 1 76 -4 0 -3 14 2 30 5 17 5 30 0
30 -5 0 -5 13 0 30 5 17 5 30 0 30 -5 0 -5 13 0 30 5 17 5 30 0 30 -5 0 -7 6
-4 14 7 18 10 106 4 106 -7 0 -4 69 3 76 3 3 2 17 -3 30 -6 14 -6 26 0 29 5 3
6 15 1 27 -4 12 -5 38 -1 59 4 21 4 43 -1 50 -4 7 -4 20 1 29 5 9 5 22 1 29
-5 7 -5 27 -2 45 4 17 4 46 0 64 -3 17 -3 32 1 32 4 0 5 12 2 26 -5 28 -38 46
-63 34 -8 -5 -21 -5 -29 0 -7 4 -23 4 -36 0 -12 -5 -25 -6 -28 -3 -5 5 -124 7
-143 3 -21 -5 -51 -4 -75 2 -16 4 -28 3 -28 -2 0 -5 -13 -5 -30 0 -17 5 -30 5
-30 0 0 -5 -13 -5 -30 0 -17 5 -30 5 -30 0 0 -5 -13 -5 -29 0 -17 4 -31 5 -33
1 -2 -4 -17 -4 -35 1 -29 8 -31 10 -23 37 4 15 4 34 0 41 -5 7 -5 23 0 34 4
12 4 30 0 42 -5 11 -5 27 0 34 4 7 4 26 0 41 -5 16 -5 31 0 34 4 3 5 20 1 38
-5 18 -5 41 -1 52 4 11 4 30 -1 41 -4 12 -5 25 -2 28 4 3 5 27 4 54 -1 26 -2
52 -2 57 0 6 1 31 3 56 2 25 -1 46 -7 47 -23 2 -141 4 -150 2 -5 -1 -14 -1
-20 0 -25 5 -204 2 -213 -4 -6 -3 -13 -2 -16 3 -3 5 -21 5 -41 1 -19 -4 -37
-4 -40 0 -3 4 -21 4 -40 0 -19 -4 -37 -4 -40 0 -3 4 -20 5 -37 1 -18 -4 -35
-8 -38 -9 -3 -1 -22 3 -42 7 -21 5 -38 5 -38 1 0 -4 -15 -5 -32 -1 -18 4 -47
4 -65 0 -18 -3 -35 -4 -37 -1 -8 7 -86 8 -86 1 0 -3 -20 -3 -45 1 -25 4 -48 4
-50 0 -3 -5 -20 -5 -37 -1 -18 4 -48 4 -65 0 -18 -3 -33 -4 -33 0 0 8 -89 8
-102 0z m60 -644 c13 0 25 2 28 6 2 4 18 4 34 -1 17 -5 30 -6 30 -2 0 7 96 6
116 -2 7 -3 15 -2 18 1 8 8 136 10 136 2 0 -4 15 -3 33 0 17 4 47 4 65 0 17
-4 32 -3 32 2 0 4 6 6 14 3 21 -8 116 -10 116 -2 0 4 12 3 28 -1 15 -5 37 -5
49 0 12 4 25 4 28 0 2 -5 19 -5 37 -2 18 4 48 4 66 0 17 -4 34 -4 37 0 4 8 70
5 92 -3 7 -3 13 -1 13 4 0 5 13 5 30 0 17 -5 32 -5 35 0 3 6 16 5 29 0 13 -5
26 -6 29 -4 7 8 81 7 105 0 17 -6 19 -11 12 -35 -4 -16 -4 -34 0 -41 5 -7 5
-23 0 -34 -4 -12 -4 -30 0 -42 5 -11 5 -27 0 -34 -4 -7 -4 -26 0 -41 5 -16 5
-31 0 -34 -4 -3 -5 -20 -1 -38 5 -18 5 -41 1 -52 -4 -11 -4 -30 1 -41 4 -12 5
-24 2 -27 -8 -8 -9 -97 -1 -97 4 0 3 -13 -2 -29 -4 -16 -6 -31 -4 -34 8 -7 11
-77 4 -77 -4 0 -4 -17 -1 -37 4 -21 4 -53 0 -71 -3 -18 -3 -35 2 -37 4 -3 4
-16 0 -28 -5 -12 -5 -31 -1 -43 5 -11 5 -27 0 -34 -4 -7 -4 -24 0 -39 4 -14 4
-35 0 -46 -4 -11 -4 -29 0 -41 5 -11 5 -27 0 -34 -4 -7 -4 -26 0 -41 5 -16 5
-31 0 -34 -4 -2 -4 -19 -1 -37 4 -18 4 -48 0 -66 -4 -17 -3 -34 2 -37 4 -3 4
-16 0 -28 -5 -12 -5 -31 -1 -43 5 -11 5 -27 0 -34 -4 -7 -4 -26 0 -41 5 -16 5
-31 0 -34 -4 -2 -4 -19 -1 -37 4 -18 4 -48 0 -66 -4 -17 -3 -34 2 -37 4 -3 5
-16 0 -28 -5 -12 -5 -31 -1 -42 4 -11 5 -24 3 -28 -8 -13 -9 -97 -1 -97 4 0 3
-13 -2 -28 -4 -16 -4 -36 1 -44 13 -23 -13 -51 -44 -49 -34 2 -45 2 -132 2
-174 0 -206 -1 -215 -6 -6 -4 -10 -2 -10 3 0 5 -17 6 -40 2 -22 -4 -40 -4 -40
0 0 4 -18 4 -40 0 -22 -4 -40 -4 -40 0 0 4 -18 4 -41 0 -22 -4 -56 -4 -75 0
-19 4 -36 4 -39 0 -2 -4 -22 -4 -42 0 -21 3 -50 3 -64 -1 -15 -3 -32 -3 -39 1
-7 4 -25 4 -40 0 -15 -4 -32 -5 -38 -1 -6 4 -30 5 -54 3 -24 -2 -50 -3 -58 -3
-8 1 -35 0 -60 0 -25 0 -52 -1 -60 0 -8 0 -34 1 -58 1 -35 1 -44 5 -51 23 -5
12 -7 26 -4 30 3 4 4 28 3 52 -1 52 -1 40 -1 225 0 80 0 152 0 160 2 54 0 104
-5 111 -3 5 -2 9 3 9 4 0 7 24 5 52 -4 67 -3 64 -3 118 0 25 0 52 0 60 0 8 0
24 1 35 1 11 1 49 0 83 -1 35 1 66 3 69 3 2 2 17 -2 31 -5 15 -5 36 -1 46 3
11 3 39 0 63 -4 23 -4 43 1 43 4 0 3 15 -1 34 -4 19 -4 40 0 47 5 7 5 22 0 33
-4 12 -4 30 0 41 4 11 4 33 1 50 -4 16 -4 46 -1 65 3 19 3 46 -1 60 -3 14 -3
34 1 44 3 11 3 39 0 63 -4 24 -3 43 2 43 5 0 7 4 4 8 -3 5 -5 38 -6 73 0 35 0
82 0 103 -1 39 15 61 34 49 6 -4 21 -7 34 -8z"/>
<path d="M14732 12482 c-6 -5 -12 -19 -11 -33 0 -13 0 -53 -1 -89 -1 -36 -1
-69 0 -75 2 -5 2 -14 1 -19 -1 -5 -2 -57 -1 -115 0 -58 0 -126 -1 -151 -1 -25
-1 -49 0 -55 7 -103 7 -103 -21 -108 -16 -2 -28 0 -28 4 0 4 -13 4 -30 -1 -17
-5 -30 -5 -30 0 0 5 -13 5 -30 0 -17 -5 -30 -5 -30 0 0 5 -13 5 -30 0 -16 -5
-32 -5 -35 0 -3 4 -21 4 -40 0 -19 -4 -35 -4 -35 0 0 5 -13 5 -30 0 -17 -5
-30 -5 -30 0 0 5 -13 5 -30 0 -17 -5 -30 -5 -30 0 0 5 -13 5 -30 0 -17 -5 -30
-5 -30 0 0 5 -13 5 -30 0 -16 -5 -30 -6 -30 -2 0 4 -19 6 -41 5 -44 -1 -63
-17 -50 -42 5 -9 5 -25 1 -36 -4 -11 -4 -34 0 -52 4 -18 6 -34 3 -36 -7 -7 -9
-107 -2 -107 4 0 3 -17 -1 -38 -3 -20 -3 -49 1 -64 4 -15 5 -29 2 -32 -8 -8
-9 -106 -2 -106 4 0 4 -15 0 -32 -3 -18 -5 -48 -3 -66 3 -27 7 -32 26 -28 13
2 29 0 36 -4 8 -5 21 -5 30 0 9 5 22 5 30 0 8 -5 21 -5 30 0 9 5 22 5 30 0 8
-5 21 -5 30 0 9 5 22 5 29 0 8 -4 27 -4 42 0 16 5 29 6 29 2 0 -4 11 -7 25 -7
14 0 25 3 25 7 0 4 6 5 13 2 21 -8 127 -10 127 -2 0 4 13 3 30 -2 18 -5 32 -5
36 1 3 5 11 6 17 2 7 -4 21 -7 32 -8 17 0 20 -8 23 -50 2 -47 3 -149 1 -163
-1 -4 -1 -11 0 -17 1 -5 2 -41 1 -80 0 -38 0 -99 0 -135 1 -36 1 -72 1 -80 -1
-8 -1 -44 0 -80 0 -36 0 -72 0 -80 -1 -8 -1 -44 0 -80 0 -36 0 -72 0 -80 -1
-8 -1 -44 0 -80 0 -36 0 -71 0 -77 0 -7 0 -57 0 -110 0 -54 -1 -113 -1 -130
-1 -28 3 -33 22 -33 13 1 107 0 210 -1 103 0 192 2 197 6 6 3 11 3 11 -2 0 -8
124 -7 147 1 7 3 13 1 13 -3 0 -5 9 -7 21 -4 14 4 19 12 16 24 -3 11 -2 17 2
15 4 -3 6 16 4 42 -2 26 -3 61 -3 77 1 17 1 36 1 43 -1 6 -1 20 -1 30 0 9 0
31 -1 47 0 17 0 36 0 43 0 6 1 41 2 76 1 35 -2 69 -5 75 -4 6 -4 11 1 11 7 0
9 65 3 95 -2 6 -1 15 0 20 4 21 1 106 -5 115 -3 6 -3 10 2 10 4 0 7 19 5 42
-1 24 -3 50 -2 58 2 88 1 121 -5 130 -3 5 -3 10 2 10 7 0 9 65 3 95 -2 6 -1
15 0 20 4 19 1 107 -4 112 -3 3 -1 15 4 27 4 12 4 29 -1 38 -13 23 16 38 53
28 15 -5 28 -5 28 0 0 4 15 5 33 1 17 -4 47 -4 65 0 17 3 32 3 32 -2 0 -4 14
-4 30 1 17 5 30 5 30 0 0 -5 13 -5 30 0 17 5 30 5 30 0 0 -5 13 -5 29 0 15 4
34 4 42 0 7 -5 20 -5 29 0 9 5 22 5 30 0 8 -5 21 -5 30 0 9 5 22 5 30 0 8 -5
21 -5 31 0 9 5 19 6 23 3 8 -8 113 -6 126 2 6 3 10 3 10 -2 0 -4 34 -8 75 -8
41 0 75 3 75 6 0 4 16 3 35 -1 19 -4 37 -5 40 -1 4 8 70 5 92 -3 7 -3 13 -1
13 4 0 5 13 5 30 0 17 -5 30 -5 30 0 0 5 13 5 30 0 17 -5 30 -5 30 0 0 5 13 5
30 0 17 -5 30 -5 30 -1 0 4 15 5 33 3 17 -3 29 -1 25 2 -3 4 -3 20 2 35 4 16
4 34 0 41 -5 7 -5 23 0 34 4 12 4 30 0 42 -5 11 -5 27 0 34 4 7 4 25 0 41 -5
15 -6 30 -3 33 7 7 7 181 0 193 -2 4 -1 17 3 28 4 11 4 34 -1 52 -4 18 -3 33
1 33 4 0 4 16 0 34 -4 19 -6 36 -5 38 2 2 -12 3 -31 3 -19 0 -34 -3 -34 -6 0
-4 -16 -3 -35 1 -19 4 -35 4 -35 0 0 -4 -16 -4 -35 0 -19 4 -37 4 -40 -1 -3
-4 -16 -4 -29 1 -13 5 -26 6 -29 4 -9 -9 -70 -10 -99 -3 -16 4 -28 4 -28 -1 0
-5 -13 -5 -30 0 -17 5 -30 5 -30 0 0 -5 -13 -5 -28 0 -16 4 -35 4 -43 -1 -8
-4 -21 -4 -28 1 -8 4 -26 4 -42 0 -19 -6 -29 -4 -33 3 -3 9 -5 9 -5 0 -1 -8
-10 -9 -31 -3 -17 5 -30 5 -30 0 0 -5 -13 -5 -30 0 -17 5 -30 5 -30 0 0 -5
-13 -5 -30 0 -17 5 -30 5 -30 0 0 -5 -13 -5 -30 0 -19 5 -30 5 -30 -1 0 -6 -4
-7 -10 -4 -13 8 -118 10 -126 3 -3 -4 -18 -3 -33 2 -16 4 -34 4 -41 0 -7 -5
-23 -5 -34 0 -12 4 -30 4 -42 0 -11 -5 -27 -5 -34 0 -7 4 -26 4 -41 0 -25 -8
-30 -6 -35 15 -3 13 -4 30 -2 37 3 7 1 25 -3 41 -4 15 -5 27 -1 27 8 0 6 85
-2 106 -3 8 -2 14 2 14 6 0 7 67 2 95 -2 6 -1 15 0 20 2 9 2 29 0 110 0 17 1
49 2 73 2 23 0 42 -3 42 -3 0 -4 14 -1 30 3 21 0 30 -9 31 -40 2 -109 0 -116
-4 -4 -2 -17 -1 -28 3 -11 4 -34 4 -52 -1 -18 -4 -35 -3 -38 1 -3 4 -21 4 -40
0 -20 -4 -48 -5 -63 -1 -15 4 -44 4 -65 1 -20 -4 -40 -4 -42 0 -3 4 -21 4 -40
0 -19 -4 -37 -4 -40 0 -3 4 -20 4 -39 0 -20 -4 -36 -4 -38 1 -2 5 -9 5 -16 1z"/>
<path d="M17975 12485 c-5 -2 -22 -6 -36 -9 -25 -5 -26 -8 -19 -46 4 -22 4
-40 1 -40 -4 0 -4 -25 -1 -55 3 -31 4 -57 2 -60 -8 -8 -7 -105 1 -105 5 0 6
-4 2 -10 -3 -5 -5 -29 -5 -52 0 -24 0 -52 0 -63 0 -195 0 -194 -18 -204 -10
-5 -24 -6 -31 -1 -8 4 -26 4 -42 0 -15 -5 -30 -6 -33 -3 -8 8 -85 8 -92 0 -3
-3 -16 -2 -29 3 -13 5 -25 6 -28 4 -9 -9 -70 -10 -99 -3 -16 4 -28 4 -28 -1 0
-5 -13 -5 -30 0 -17 5 -30 5 -30 0 0 -5 -13 -5 -29 0 -15 4 -34 4 -42 0 -7 -5
-20 -5 -28 -1 -9 5 -25 5 -36 1 -11 -4 -26 -3 -33 3 -10 8 -13 3 -12 -24 0
-39 1 -168 1 -186 -1 -11 -1 -143 -1 -230 0 -10 0 -40 0 -66 0 -27 2 -53 5
-58 4 -5 3 -9 -2 -9 -8 0 -7 -115 2 -137 2 -7 1 -13 -3 -13 -6 0 -6 -67 -2
-195 1 -31 1 -238 0 -260 -1 -11 -1 -24 -1 -30 0 -5 0 -35 0 -65 0 -30 1 -64
1 -75 1 -11 1 -24 1 -30 0 -5 -1 -37 -1 -70 -1 -33 -1 -64 0 -70 2 -5 2 -14 1
-18 -1 -7 -2 -114 -1 -179 1 -10 1 -53 1 -95 0 -43 0 -86 0 -95 0 -14 9 -18
42 -19 23 -1 47 0 52 1 6 1 15 2 20 2 28 -1 102 -2 115 -1 8 0 39 -1 68 -3 28
-2 52 1 52 5 0 5 4 6 10 2 8 -5 42 -6 110 -4 8 0 38 0 65 0 28 0 57 0 65 0 8
0 22 -1 29 -3 11 -2 14 9 12 52 -1 30 -2 60 -2 65 2 57 2 112 1 120 -1 6 -1
28 0 50 5 104 4 145 -2 145 -4 0 -5 7 -2 15 3 8 7 54 7 102 l2 88 38 6 c20 3
37 3 37 -1 0 -4 18 -4 40 0 22 4 40 4 40 0 0 -4 18 -4 40 0 22 4 40 4 40 0 0
-4 18 -4 41 0 23 4 53 5 68 1 14 -4 42 -4 63 -1 20 4 42 4 48 0 7 -4 27 -4 46
0 18 4 35 5 39 2 3 -3 33 -4 68 -3 73 3 67 3 135 -1 28 -2 52 0 52 3 0 4 18 3
40 -1 22 -4 40 -4 40 0 0 4 18 4 40 0 22 -4 58 -4 80 0 22 4 40 4 40 0 0 -4
18 -4 40 0 22 4 40 4 40 0 0 -4 18 -4 40 0 22 4 40 4 40 0 0 -10 63 1 79 14
11 8 13 8 8 0 -5 -8 6 -13 33 -16 22 -2 40 -1 40 3 0 3 17 3 38 -1 20 -3 49
-3 63 1 15 3 32 3 39 -1 7 -4 25 -4 41 0 15 5 30 6 33 3 8 -8 106 -9 106 -1 0
4 6 5 14 2 7 -3 61 -6 119 -7 100 -2 106 -1 106 18 0 11 1 43 2 71 1 29 -1 56
-3 60 -3 5 -2 18 2 29 4 11 4 34 0 52 -4 18 -5 35 -2 38 3 3 5 31 3 63 -1 31
-2 62 -2 67 0 6 2 49 3 98 2 48 1 87 -2 87 -3 0 -5 14 -5 30 0 17 3 30 6 30 4
0 3 18 -1 40 -4 22 -5 40 -1 40 3 0 6 34 6 75 0 41 -4 75 -8 75 -5 0 -5 4 -2
10 8 13 9 295 1 308 -3 6 -2 13 3 16 16 10 -4 71 -22 70 -9 -1 -17 2 -17 7 0
5 -10 5 -23 0 -13 -5 -30 -5 -37 -1 -8 5 -18 6 -23 3 -13 -8 -87 -9 -87 -1 0
4 -13 3 -30 -2 -17 -5 -30 -5 -30 0 0 5 -13 5 -30 0 -17 -5 -30 -5 -30 0 0 5
-13 5 -30 0 -17 -5 -32 -5 -35 0 -3 5 -15 6 -29 0 -12 -4 -29 -4 -36 0 -8 5
-21 5 -30 0 -9 -5 -22 -5 -30 0 -8 5 -21 5 -31 0 -9 -5 -19 -7 -23 -3 -3 3
-18 6 -33 7 -17 1 -27 6 -26 14 2 6 -1 12 -6 12 -6 0 -6 12 -1 30 5 17 5 30 0
30 -5 0 -5 13 0 30 5 17 5 30 0 30 -5 0 -5 13 0 30 5 17 5 30 0 30 -5 0 -5 13
0 30 5 17 5 30 0 30 -5 0 -5 13 0 30 5 17 5 30 0 30 -5 0 -5 13 0 30 5 17 5
30 0 30 -5 0 -5 13 0 30 5 17 5 30 0 30 -5 0 -5 13 0 30 5 17 6 30 2 30 -4 0
-7 16 -7 35 0 19 3 35 6 35 10 0 -2 50 -14 57 -13 8 -87 10 -87 2 0 -4 -17 -3
-37 0 -21 4 -53 4 -71 0 -18 -3 -34 -3 -37 1 -3 4 -21 4 -41 0 -19 -5 -47 -5
-62 -1 -15 5 -36 5 -47 1 -11 -4 -32 -4 -46 0 -15 4 -32 4 -39 0 -7 -4 -24 -5
-39 -1 -14 5 -38 4 -53 0 -16 -4 -30 -3 -34 2 -3 5 -12 5 -23 -1 -10 -5 -21
-7 -23 -4 -5 5 -123 8 -143 4 -5 -1 -14 -1 -20 0 -24 5 -204 2 -213 -4 -6 -3
-13 -2 -16 3 -3 5 -21 5 -41 1 -19 -4 -37 -4 -40 0 -3 4 -20 4 -39 0 -19 -4
-38 -4 -43 0 -4 4 -12 6 -18 5z m95 -647 c0 -4 14 -3 30 2 17 5 30 5 30 0 0
-5 13 -5 30 0 17 5 30 5 30 0 0 -5 13 -5 30 0 17 5 30 5 30 0 0 -5 13 -5 30 0
17 5 32 5 35 0 3 -5 16 -5 30 0 15 6 27 6 30 0 3 -5 15 -6 29 0 12 4 29 4 36
0 8 -5 21 -5 30 0 9 5 22 5 28 1 7 -4 33 -5 57 -1 24 4 50 3 59 -2 8 -5 17 -4
21 1 3 7 15 7 29 1 13 -5 27 -6 30 -3 8 8 76 9 76 1 0 -4 14 -3 30 2 17 5 30
5 30 0 0 -5 13 -5 30 0 17 5 30 5 30 0 0 -5 13 -5 30 0 17 5 32 5 35 0 3 -5
16 -5 30 0 15 6 27 6 30 0 3 -5 15 -6 29 0 12 4 29 4 36 0 8 -5 21 -5 30 0 9
5 22 5 30 0 7 -4 19 -6 27 -3 26 10 41 -15 33 -52 -4 -19 -4 -35 0 -35 5 0 5
-13 0 -30 -5 -17 -5 -30 0 -30 5 0 5 -13 0 -30 -5 -17 -5 -30 0 -30 5 0 5 -13
0 -30 -5 -17 -5 -30 0 -30 5 0 5 -13 0 -30 -5 -16 -5 -30 0 -30 4 0 4 -16 0
-35 -4 -19 -4 -37 0 -40 5 -3 5 -19 0 -35 -5 -17 -5 -30 0 -30 5 0 5 -13 0
-30 -5 -16 -6 -30 -2 -30 4 0 7 -15 7 -34 0 -19 -3 -32 -7 -29 -5 2 -4 -7 1
-20 9 -23 7 -25 -20 -29 -16 -3 -31 -2 -34 1 -3 2 -24 4 -48 2 -57 -3 -100 -1
-105 4 -2 2 -14 0 -27 -5 -13 -5 -26 -6 -29 -2 -8 7 -113 5 -126 -3 -6 -4 -10
-3 -10 2 0 7 -73 9 -90 2 -3 -1 -9 0 -15 1 -20 4 -127 2 -132 -3 -3 -3 -16 -2
-29 3 -13 5 -24 6 -24 1 0 -5 -15 -6 -33 -2 -18 5 -41 5 -52 1 -11 -4 -33 -4
-50 0 -17 4 -39 4 -50 0 -11 -4 -24 -5 -30 -2 -12 7 -113 5 -125 -3 -6 -4 -10
-3 -10 2 0 7 -73 9 -90 2 -3 -1 -9 0 -15 1 -5 1 -38 2 -72 3 l-61 0 -4 33 c-2
18 -1 41 3 51 3 10 3 30 -2 45 -4 15 -4 30 0 33 5 2 5 23 1 45 -4 22 -5 40 -1
40 7 0 6 99 -2 106 -3 3 -2 17 2 32 4 15 4 44 1 64 -4 21 -5 38 -1 38 7 0 6
99 -2 106 -6 7 3 37 14 44 11 8 139 6 139 -2z"/>
<path d="M4500 11842 c-23 -3 -25 -7 -22 -45 1 -23 3 -48 2 -54 0 -7 0 -20 0
-28 0 -8 0 -22 0 -30 0 -8 0 -22 0 -30 0 -8 0 -22 0 -30 0 -8 0 -23 0 -32 0
-10 0 -40 1 -66 1 -27 -1 -51 -4 -54 -3 -3 -2 -15 3 -28 5 -13 6 -26 3 -29 -4
-4 -6 -25 -5 -49 3 -46 3 -49 1 -120 -1 -27 1 -51 4 -54 3 -3 2 -15 -2 -27 -5
-11 -5 -30 -1 -41 4 -11 5 -24 2 -29 -5 -8 -6 -126 -2 -143 1 -5 1 -12 0 -18
-5 -22 -1 -135 5 -144 3 -6 2 -11 -4 -11 -6 0 -6 -11 -1 -30 5 -17 5 -30 0
-30 -5 0 -5 -13 0 -30 5 -17 5 -30 0 -30 -5 0 -5 -13 0 -30 5 -17 5 -30 0 -30
-5 0 -5 -13 0 -30 5 -17 5 -30 0 -30 -5 0 -5 -13 0 -30 5 -17 5 -30 0 -30 -5
0 -5 -13 0 -30 5 -17 5 -30 0 -30 -5 0 -5 -13 0 -30 5 -17 5 -30 0 -30 -5 0
-5 -13 0 -30 5 -17 5 -30 0 -30 -5 0 -5 -13 0 -30 5 -17 5 -30 0 -30 -5 0 -5
-13 0 -30 5 -17 5 -30 0 -30 -5 0 -5 -13 0 -30 5 -17 5 -30 0 -30 -5 0 -5 -13
0 -30 5 -17 5 -32 0 -35 -5 -3 -6 -15 0 -29 4 -12 4 -29 0 -36 -5 -8 -5 -21
-1 -29 5 -9 6 -22 4 -29 -4 -10 5 -13 33 -12 22 1 42 1 47 0 18 -4 98 -2 103
2 3 3 20 2 38 -2 19 -4 39 -4 45 -1 6 4 36 4 66 1 30 -3 55 -2 55 3 0 4 4 6
10 2 5 -3 29 -5 52 -5 24 0 52 0 63 0 125 -1 140 4 125 46 -5 12 -7 24 -4 26
4 5 8 144 4 163 -1 6 -1 14 0 20 4 24 3 115 -2 121 -4 3 -3 18 1 32 4 15 4 39
0 54 -4 15 -4 29 -1 32 7 7 6 105 -1 113 -3 3 -2 16 3 29 5 13 5 26 1 29 -5 3
-5 21 -1 40 4 19 5 35 1 35 -4 0 -5 22 -1 50 3 27 3 55 -1 61 -4 7 -4 23 0 38
5 14 4 38 0 53 -4 15 -4 29 -1 32 7 7 6 112 -1 124 -3 4 -2 14 2 21 5 7 5 30
1 52 -4 21 -4 39 0 39 4 0 5 15 0 33 -4 18 -3 43 1 55 5 12 5 22 0 22 -5 0 -5
18 -1 39 4 22 4 45 -1 52 -4 7 -4 22 1 33 4 12 4 30 0 41 -4 11 -4 29 0 40 4
11 4 29 0 41 -5 11 -5 26 -1 33 5 7 5 30 1 52 -4 21 -5 39 -1 39 7 0 4 107 -3
127 -3 7 -2 13 2 13 11 0 2 72 -10 87 -6 7 -15 10 -21 6 -15 -9 -57 -10 -57
-2 0 4 -13 4 -30 -1 -17 -5 -30 -5 -30 0 0 5 -13 5 -30 0 -17 -5 -30 -5 -30 0
0 5 -13 5 -30 0 -17 -5 -30 -5 -30 0 0 5 -13 5 -30 0 -17 -5 -30 -5 -30 0 0 5
-13 5 -30 0 -17 -5 -32 -5 -35 0 -3 5 -15 6 -29 0 -12 -4 -29 -4 -36 0 -8 5
-21 5 -30 0 -9 -5 -22 -5 -29 0 -8 4 -26 4 -42 0 -15 -5 -29 -5 -31 -2 -2 4
-14 6 -28 4z"/>
<path d="M7703 11842 c-16 -2 -23 -10 -24 -25 -2 -52 -1 -283 1 -292 1 -5 1
-14 0 -20 -5 -25 -1 -215 4 -224 4 -5 2 -12 -3 -15 -6 -4 -6 -19 0 -39 11 -39
11 -39 2 -34 -9 6 -9 -55 -1 -69 3 -5 2 -18 -2 -29 -4 -11 -4 -32 1 -47 4 -16
5 -28 1 -28 -8 0 -7 -193 1 -214 3 -8 3 -17 0 -20 -8 -7 -7 -201 0 -213 3 -5
2 -15 -3 -23 -4 -7 -4 -23 0 -36 5 -12 6 -25 3 -28 -6 -5 -8 -137 -3 -161 1
-5 1 -14 0 -20 -2 -14 -2 -208 0 -220 1 -5 1 -14 0 -20 -4 -21 -1 -106 5 -115
3 -6 2 -10 -4 -10 -6 0 -6 -11 -1 -30 5 -16 6 -30 2 -30 -8 0 -7 -253 1 -274
3 -8 3 -17 0 -20 -8 -8 -7 -212 1 -225 4 -5 2 -12 -3 -15 -6 -4 -6 -18 -1 -35
4 -16 7 -31 5 -33 -2 -2 18 -2 43 0 26 2 52 3 57 3 6 0 31 -1 56 -2 25 -1 50
0 55 3 5 3 18 2 29 -2 11 -4 29 -4 40 -1 11 4 31 6 45 4 52 -6 120 -6 126 -1
3 4 18 3 32 -1 15 -4 39 -4 55 0 15 4 27 4 27 1 0 -4 15 -7 34 -7 19 0 33 1
31 3 -1 2 1 19 5 38 4 19 4 36 0 39 -4 3 -4 21 0 40 4 19 4 37 0 40 -4 3 -4
21 0 40 4 19 4 37 -1 40 -4 3 -6 12 -3 20 8 21 10 165 3 165 -4 0 -3 15 0 33
4 17 4 49 0 70 -3 20 -3 37 1 37 4 0 4 20 0 45 -4 25 -4 45 -1 45 6 0 6 61 1
120 -1 14 -1 27 0 30 4 14 4 100 -1 100 -3 0 -3 22 1 49 3 27 3 57 -1 68 -3
10 -3 27 1 37 3 11 3 37 0 58 -4 21 -5 38 -1 38 3 0 5 24 3 52 -3 61 -3 63 -3
103 1 17 1 39 1 50 0 11 0 69 0 129 0 60 -1 111 -4 113 -2 2 0 20 4 39 4 19 4
36 0 39 -4 3 -4 21 0 40 4 19 4 37 0 40 -4 3 -5 20 -1 38 5 18 5 41 1 52 -4
11 -4 30 1 42 5 12 4 25 0 28 -5 3 -5 21 -1 40 4 19 4 37 0 40 -4 3 -4 21 0
40 4 19 4 37 0 40 -4 3 -4 21 0 40 4 20 4 38 -1 41 -5 3 -7 10 -3 15 3 6 5 72
5 147 -2 164 -2 165 0 198 1 14 -6 33 -15 42 -9 9 -16 12 -16 7 0 -6 -13 -10
-30 -10 -16 0 -30 3 -30 7 0 4 -13 3 -30 -2 -17 -5 -30 -5 -30 0 0 5 -13 5
-30 0 -17 -5 -30 -5 -30 0 0 5 -13 5 -30 0 -17 -5 -30 -5 -30 0 0 5 -13 5 -30
0 -17 -5 -30 -5 -30 0 0 5 -13 5 -30 0 -17 -5 -32 -5 -35 0 -3 5 -15 6 -29 0
-12 -4 -29 -4 -36 0 -8 5 -21 5 -30 0 -9 -5 -22 -5 -29 0 -8 4 -26 4 -42 0
-15 -5 -29 -5 -31 -2 -2 4 -13 6 -25 4z"/>
<path d="M15409 9922 c-48 -3 -67 -23 -49 -52 4 -7 4 -25 0 -40 -4 -15 -4 -33
0 -40 5 -7 5 -22 1 -34 -5 -11 -5 -35 -1 -53 4 -17 5 -35 2 -38 -7 -6 -5 -112
2 -123 2 -4 1 -14 -3 -21 -5 -7 -5 -30 -1 -51 4 -22 5 -42 2 -45 -3 -3 -4 -26
-3 -53 1 -26 2 -55 2 -65 0 -23 36 -36 71 -27 14 5 29 6 32 2 3 -3 27 -4 54
-3 54 2 47 2 155 0 45 -1 87 0 92 1 6 1 12 2 15 0 15 -5 80 -4 80 2 0 4 13 3
30 -2 18 -5 32 -5 36 1 3 5 10 6 16 3 14 -9 198 -11 198 -3 0 4 16 3 35 -1 19
-4 37 -4 40 1 3 4 16 4 28 0 12 -5 31 -5 42 -2 11 4 31 6 45 4 21 -2 85 -4
140 -2 8 0 50 -1 93 -3 48 -2 76 1 74 7 -2 6 -1 22 3 36 5 15 4 32 0 39 -5 7
-5 23 0 34 4 12 4 30 0 42 -5 11 -5 27 0 34 4 7 4 26 0 41 -5 16 -5 31 0 34 4
3 5 20 1 38 -5 18 -5 41 -1 52 4 11 4 29 0 41 -5 11 -5 26 -1 33 5 7 5 30 1
52 -4 21 -5 39 -1 39 3 0 6 18 6 40 0 22 -3 40 -7 40 -3 0 -4 9 -1 20 5 17 1
20 -23 20 -16 -1 -53 0 -82 2 -28 2 -52 0 -52 -3 0 -4 -18 -3 -40 1 -22 4 -40
4 -40 0 0 -4 -18 -4 -40 0 -22 4 -58 4 -80 0 -22 -4 -40 -4 -40 0 0 4 -18 4
-40 0 -22 -4 -40 -4 -40 0 0 4 -18 4 -40 0 -22 -4 -40 -4 -40 0 0 10 -63 -1
-79 -14 -11 -8 -13 -8 -8 0 5 8 -6 13 -33 16 -22 2 -40 1 -40 -3 0 -3 -17 -3
-38 1 -20 3 -49 3 -63 -1 -15 -3 -32 -3 -39 1 -7 4 -25 4 -41 0 -15 -5 -30 -6
-33 -3 -7 7 -94 8 -101 1 -3 -3 -20 -2 -38 1 -18 4 -46 4 -64 0 -17 -3 -35 -4
-40 0 -4 3 -29 5 -54 3z"/>
<path d="M18010 9921 c0 -3 -19 -6 -42 -6 -36 0 -43 -3 -48 -25 -4 -14 -3 -35
1 -47 5 -13 5 -23 1 -23 -4 0 -7 -20 -7 -45 0 -25 3 -45 6 -45 4 0 3 -17 -1
-38 -3 -20 -3 -49 1 -65 4 -15 4 -27 1 -27 -4 0 -6 -24 -4 -52 1 -29 3 -60 3
-68 0 -8 -1 -34 -1 -58 0 -23 2 -47 5 -52 4 -6 2 -10 -2 -10 -5 0 -7 -17 -5
-39 4 -35 6 -38 35 -40 80 -4 107 -4 112 1 3 3 20 2 38 -2 18 -4 41 -4 52 0
11 4 24 5 30 2 12 -7 113 -5 125 3 6 4 10 3 10 -2 0 -9 77 -9 86 0 3 3 16 2
28 -3 13 -4 29 -4 36 0 8 5 21 5 31 0 9 -5 18 -7 21 -5 5 5 67 7 135 3 24 -1
45 1 48 4 3 3 20 2 38 -2 18 -4 41 -4 52 0 11 4 24 5 30 2 12 -7 113 -5 125 3
6 4 10 3 10 -2 0 -9 77 -9 86 0 3 3 16 2 28 -3 13 -4 29 -4 36 0 8 5 21 5 29
1 9 -4 32 -4 51 -1 19 3 47 3 62 -1 15 -4 30 -3 34 2 3 5 10 7 15 3 9 -5 83
-8 104 -4 6 1 15 1 20 0 6 -1 46 -2 90 -2 44 0 85 1 90 2 6 1 15 1 20 0 21 -4
106 -1 115 5 6 3 10 3 10 -2 0 -7 32 -8 84 -4 4 1 6 12 4 26 -3 14 -2 25 1 25
7 0 5 84 -2 97 -2 4 -1 17 3 28 4 11 4 34 0 52 -4 18 -5 35 -2 38 3 3 5 31 3
63 -1 31 -2 64 -2 72 1 12 0 99 0 223 0 16 -7 18 -45 15 -24 -2 -44 -1 -44 2
0 6 -99 4 -106 -3 -3 -2 -21 -1 -40 3 -19 4 -36 5 -38 1 -3 -4 -32 -4 -65 -1
-34 3 -61 2 -61 -3 0 -4 -4 -6 -10 -2 -8 5 -33 6 -110 4 -8 0 -41 1 -72 3 -31
2 -55 1 -53 -3 2 -3 -16 -3 -40 1 -24 4 -49 3 -56 0 -6 -4 -23 -4 -38 -1 -14
4 -43 4 -63 1 -21 -4 -38 -4 -38 0 0 4 -19 4 -42 0 -24 -5 -46 -6 -51 -3 -10
6 -243 7 -254 0 -4 -2 -17 -1 -28 3 -11 4 -32 4 -47 -1 -16 -4 -28 -5 -28 -1
0 4 -24 6 -52 4 -29 -2 -64 -2 -78 -2 -14 1 -32 1 -40 1 -16 -1 -47 -1 -123 2
-26 1 -47 -1 -47 -4 0 -4 -18 -3 -40 1 -22 4 -40 4 -40 0 0 -4 -18 -4 -40 0
-22 4 -40 5 -40 1z"/>
<path d="M673 8639 c-13 -5 -23 -5 -23 -1 0 4 -4 1 -9 -7 -5 -8 -6 -24 -1 -37
5 -12 6 -24 3 -28 -7 -7 -6 -222 1 -234 2 -4 1 -14 -4 -21 -4 -8 -4 -27 0 -42
5 -16 5 -31 0 -34 -4 -3 -4 -20 0 -39 4 -19 5 -38 2 -41 -9 -9 -3 -138 7 -148
10 -10 87 -14 97 -5 3 3 19 3 37 -1 18 -4 47 -4 65 0 18 3 34 3 37 -1 3 -4 21
-4 40 0 20 4 48 5 63 1 15 -4 44 -4 64 -1 21 4 40 5 42 2 8 -7 162 -6 175 2 6
4 15 4 21 1 9 -5 123 -9 145 -5 6 1 15 1 20 0 25 -5 204 -2 213 4 6 3 13 2 16
-3 3 -5 21 -5 41 -1 19 4 37 4 40 0 3 -4 21 -4 40 0 19 4 37 4 40 -1 3 -4 12
-6 20 -3 18 7 145 11 145 4 0 -6 86 -4 104 3 7 3 18 2 25 -2 7 -5 30 -5 52 -1
21 4 39 5 39 1 0 -8 78 -6 86 2 3 3 11 4 18 1 19 -7 126 -10 126 -3 0 4 18 3
39 -1 22 -4 45 -4 51 0 7 4 27 4 46 0 19 -4 36 -4 39 0 3 4 20 5 37 1 18 -4
47 -4 65 0 18 3 35 4 37 1 8 -7 86 -8 86 -1 0 3 20 3 45 -1 25 -4 48 -3 51 2
3 4 9 6 14 3 9 -5 114 -9 135 -5 6 1 14 1 20 0 24 -4 123 -3 131 3 6 3 16 2
23 -2 7 -5 28 -5 47 -1 19 4 36 4 39 0 3 -4 21 -4 40 0 19 4 37 4 40 0 3 -4
21 -4 40 0 20 4 48 5 63 1 15 -4 44 -4 64 -1 21 4 40 5 42 2 8 -7 162 -6 175
2 6 4 15 4 21 1 9 -5 123 -9 145 -5 6 1 15 1 20 0 25 -5 204 -2 213 4 6 3 13
2 16 -3 3 -5 21 -5 41 -1 19 4 37 4 40 0 3 -4 21 -4 40 0 19 4 37 4 40 -1 3
-4 12 -6 20 -3 18 7 145 11 145 4 0 -6 86 -4 104 3 7 3 18 2 25 -2 7 -5 30 -5
52 -1 21 4 39 5 39 1 0 -5 76 -6 90 0 3 1 9 1 14 0 25 -5 126 -4 131 1 3 3 20
2 38 -2 18 -4 41 -4 52 0 11 4 23 6 27 3 12 -6 164 -6 175 0 5 3 15 2 22 -2 7
-5 30 -5 52 -1 21 4 39 5 39 1 0 -5 76 -6 90 0 3 1 10 0 15 -1 24 -5 273 -2
282 3 5 3 15 2 22 -2 7 -5 28 -5 47 -1 19 4 36 4 39 0 3 -4 21 -4 40 0 19 4
37 4 40 0 3 -4 21 -4 40 0 20 4 48 5 63 1 15 -4 44 -4 65 -1 20 4 40 4 42 0 3
-4 21 -4 40 0 19 4 37 4 40 0 3 -4 21 -4 40 0 19 4 35 5 35 1 0 -5 175 -6 190
0 3 1 10 0 15 -1 24 -5 204 -2 213 4 6 3 13 2 16 -3 3 -5 21 -5 41 -1 19 4 37
4 40 0 3 -4 21 -4 40 0 19 4 37 4 40 0 3 -4 22 -4 42 1 21 4 38 8 38 8 0 0 17
-4 38 -8 20 -5 37 -5 37 -1 0 4 15 5 33 1 17 -4 46 -4 64 0 18 3 35 4 37 1 8
-7 86 -8 86 -1 0 3 20 3 45 -1 25 -4 48 -4 50 0 3 5 21 4 40 0 19 -4 37 -4 40
0 3 5 18 5 34 0 15 -4 34 -4 41 0 7 4 25 4 41 0 15 -5 29 -6 32 -4 6 6 107 10
107 4 0 -6 86 -4 104 3 7 3 18 2 25 -2 7 -5 30 -5 52 -1 21 4 39 5 39 1 0 -8
78 -6 86 2 3 3 11 4 18 1 19 -7 126 -10 126 -3 0 4 17 3 38 -1 21 -4 48 -3 60
1 12 5 22 5 22 1 0 -8 78 -8 86 0 3 3 19 3 37 -1 18 -4 47 -4 65 0 18 3 34 3
37 -1 3 -4 22 -4 42 0 20 5 41 6 45 4 7 -5 82 -6 238 -3 8 0 60 -1 115 -1 55
-1 105 -1 110 1 6 1 15 0 20 -1 24 -5 204 -2 213 4 6 3 13 2 16 -3 3 -5 21 -5
41 -1 19 4 37 4 40 0 3 -4 21 -4 40 0 19 4 37 4 40 0 3 -4 21 -4 40 0 19 4 51
4 70 0 19 -4 37 -4 40 0 3 4 20 5 37 1 18 -4 47 -4 65 0 18 3 35 4 37 1 8 -7
86 -8 86 -1 0 3 20 3 45 -1 25 -4 48 -4 50 0 3 5 20 4 39 0 19 -4 40 -4 47 0
7 5 22 5 33 0 12 -4 30 -4 41 0 11 4 29 5 40 1 23 -7 78 -6 91 1 5 3 18 2 29
-2 11 -4 34 -4 52 1 18 4 35 3 38 -1 3 -4 21 -4 40 0 19 4 37 4 40 0 3 -4 21
-4 41 0 19 5 48 5 63 0 16 -4 34 -4 41 0 6 4 27 4 46 0 19 -4 36 -4 39 0 3 4
20 5 37 1 18 -4 45 -4 60 0 16 4 30 3 34 -2 3 -5 12 -5 23 1 10 5 21 7 23 4 5
-5 123 -8 143 -4 6 1 15 1 20 0 25 -5 204 -2 213 4 6 3 13 2 16 -3 3 -5 21 -5
41 -1 19 4 37 4 40 0 3 -4 21 -4 40 0 19 4 37 4 40 0 3 -4 21 -4 41 0 19 5 48
5 63 0 16 -4 34 -4 42 0 7 5 17 6 21 4 11 -7 197 -9 203 -2 3 3 26 2 50 -2 25
-4 48 -4 50 0 3 5 21 4 40 0 19 -4 37 -4 40 0 3 5 18 5 34 0 15 -4 34 -4 42 0
7 5 17 6 22 3 12 -7 112 -7 124 0 5 3 15 2 22 -2 7 -5 28 -5 47 -1 19 4 36 4
39 0 3 -4 21 -4 40 0 19 4 37 4 40 0 3 -4 21 -4 40 0 20 4 48 5 63 1 15 -4 44
-4 64 -1 21 4 40 5 42 2 8 -7 162 -6 175 2 6 4 15 4 21 1 9 -5 123 -9 145 -5
6 1 15 1 20 0 25 -5 204 -2 213 4 6 3 13 2 16 -3 3 -5 21 -5 41 -1 19 4 37 4
40 0 3 -4 21 -4 40 0 19 4 37 4 40 -1 3 -4 12 -6 20 -3 18 7 145 11 145 4 0
-6 86 -4 104 3 7 3 18 2 25 -2 7 -5 30 -5 52 -1 21 4 39 5 39 1 0 -5 76 -6 90
0 3 1 9 1 14 0 25 -5 126 -4 131 1 3 3 21 2 39 -2 19 -4 40 -4 47 1 7 4 17 5
23 2 11 -8 84 -8 92 -1 3 3 19 3 37 -1 18 -4 47 -4 65 0 18 3 34 3 37 -1 3 -4
22 -4 42 0 20 5 41 6 45 4 7 -5 82 -6 238 -3 8 0 60 -1 115 -1 55 -1 105 -1
110 1 6 1 15 0 20 -1 25 -5 204 -2 213 4 6 3 13 2 16 -3 3 -5 21 -5 41 -1 19
4 37 4 40 0 3 -4 21 -4 40 0 19 4 37 4 40 0 3 -4 20 -5 38 -1 18 5 41 6 52 4
33 -6 114 -5 125 2 6 3 10 3 10 -2 0 -9 77 -9 86 0 3 3 11 4 18 1 19 -7 126
-10 126 -3 0 4 18 3 39 -1 22 -4 45 -4 51 0 7 4 26 4 44 0 18 -4 41 -4 51 0
11 4 29 4 40 0 11 -4 33 -4 50 0 17 4 39 4 50 0 11 -4 34 -4 52 1 18 4 33 4
33 0 0 -7 78 -6 86 2 3 3 11 4 18 1 19 -7 126 -10 126 -3 0 4 18 3 39 -1 22
-4 45 -4 51 0 7 4 27 4 45 0 18 -4 39 -4 45 0 7 4 26 4 41 0 17 -5 31 -5 35 1
3 5 10 7 15 4 12 -8 117 -10 124 -3 3 2 26 2 50 -2 25 -4 48 -3 51 1 2 5 10 6
17 3 20 -7 127 -10 127 -3 0 4 18 3 39 -1 22 -4 45 -4 51 0 7 4 27 4 46 0 19
-4 36 -4 39 0 3 4 20 4 39 0 19 -4 40 -4 47 1 7 4 17 5 21 3 12 -7 207 -8 214
-1 3 3 11 4 18 1 19 -7 126 -10 126 -3 0 4 18 3 39 -1 22 -4 45 -4 51 0 7 4
27 4 45 0 18 -4 39 -4 46 0 7 5 18 6 25 3 22 -8 78 -9 100 -2 11 4 26 4 33 -1
7 -4 28 -4 47 0 19 4 36 4 39 0 3 -4 21 -4 40 0 19 4 37 4 40 0 3 -4 21 -4 40
0 20 4 48 5 63 1 15 -4 44 -4 64 -1 21 4 40 5 42 2 8 -7 162 -6 175 2 6 4 15
4 21 1 9 -5 123 -9 145 -5 6 1 15 1 20 0 25 -5 204 -2 213 4 6 3 13 2 16 -3 3
-5 21 -5 41 -1 19 4 37 4 40 0 3 -4 21 -4 40 0 19 4 37 4 40 -1 3 -4 12 -6 20
-3 18 7 145 11 145 4 0 -6 86 -4 104 3 7 3 18 2 25 -2 7 -5 30 -5 52 -1 21 4
39 5 39 1 0 -8 78 -6 86 2 3 3 11 4 18 1 19 -7 126 -10 126 -3 0 4 18 3 39 -1
47 -8 66 1 58 29 -3 12 -2 21 1 21 8 0 7 84 -1 97 -2 4 -1 17 3 28 4 11 4 34
0 52 -4 18 -5 35 -2 38 3 3 5 31 3 63 -1 31 -2 62 -2 67 1 31 2 185 2 214 -1
29 -4 33 -24 28 -12 -4 -29 -2 -37 3 -8 5 -21 5 -30 0 -9 -5 -22 -5 -30 0 -8
5 -21 5 -30 0 -9 -5 -22 -5 -30 0 -8 5 -21 5 -30 0 -9 -5 -22 -5 -29 0 -8 4
-27 4 -42 0 -16 -5 -29 -5 -29 0 0 5 -13 5 -30 0 -17 -5 -30 -5 -30 0 0 5 -13
5 -30 0 -17 -5 -30 -6 -30 -2 0 4 -16 7 -35 7 -19 0 -35 -3 -35 -7 0 -4 -13
-3 -28 2 -16 4 -35 4 -43 -1 -8 -4 -21 -4 -28 0 -7 5 -30 5 -51 1 -21 -4 -45
-3 -54 2 -10 6 -16 5 -16 -1 0 -6 -11 -6 -30 -1 -16 5 -30 6 -30 2 0 -4 -16
-7 -35 -7 -19 0 -35 3 -35 7 0 4 -13 3 -30 -2 -17 -5 -30 -5 -30 0 0 5 -13 5
-30 0 -17 -5 -30 -5 -30 0 0 5 -13 5 -30 0 -17 -5 -32 -5 -35 0 -3 5 -16 5
-30 0 -15 -6 -27 -6 -30 0 -3 5 -15 6 -29 0 -12 -4 -29 -4 -36 0 -8 5 -21 5
-30 0 -9 -5 -22 -5 -29 0 -8 4 -25 5 -40 1 -14 -5 -38 -5 -52 -1 -15 4 -33 4
-40 0 -7 -5 -20 -5 -30 0 -9 5 -19 7 -22 4 -8 -9 -87 -10 -87 -2 0 4 -13 3
-30 -2 -17 -5 -30 -5 -30 0 0 5 -13 5 -30 0 -17 -5 -30 -5 -30 0 0 5 -13 5
-30 0 -17 -5 -32 -5 -35 0 -3 5 -16 5 -30 0 -15 -6 -27 -6 -30 0 -3 5 -15 6
-29 0 -12 -4 -29 -4 -36 0 -8 5 -21 5 -31 0 -9 -5 -19 -7 -22 -4 -8 9 -97 10
-97 2 0 -4 -13 -3 -29 2 -15 4 -34 4 -41 0 -7 -5 -20 -6 -28 -2 -20 7 -80 7
-88 -1 -3 -3 -16 -2 -29 3 -13 5 -25 6 -28 4 -9 -9 -70 -10 -99 -3 -16 4 -28
4 -28 -1 0 -5 -13 -5 -30 0 -17 5 -30 5 -30 0 0 -5 -13 -5 -30 0 -17 5 -30 5
-30 0 0 -5 -13 -5 -30 0 -17 5 -32 5 -35 0 -3 -5 -16 -5 -30 0 -15 6 -25 6
-25 0 0 -5 -12 -5 -30 0 -17 5 -30 5 -30 0 0 -5 -13 -5 -30 0 -17 5 -30 5 -30
0 0 -5 -13 -5 -30 0 -17 5 -30 5 -30 0 0 -5 -13 -5 -30 0 -19 5 -30 5 -30 -1
0 -6 -5 -7 -11 -4 -10 7 -102 10 -124 5 -5 -1 -13 -1 -17 0 -18 4 -136 3 -144
-2 -5 -3 -18 -2 -29 2 -11 4 -30 4 -41 -1 -12 -4 -24 -5 -27 -2 -3 3 -27 5
-54 4 -71 -2 -74 -2 -120 1 -24 1 -45 -1 -49 -5 -3 -3 -16 -2 -29 3 -13 5 -25
6 -28 4 -9 -9 -70 -10 -99 -3 -16 4 -28 4 -28 -1 0 -5 -13 -5 -30 0 -17 5 -30
5 -30 0 0 -5 -13 -5 -28 0 -16 4 -35 4 -43 -1 -8 -4 -21 -4 -28 1 -8 4 -26 4
-42 0 -19 -6 -29 -4 -33 3 -3 9 -5 9 -5 0 -1 -8 -10 -9 -31 -3 -17 5 -30 5
-30 0 0 -5 -13 -5 -30 0 -17 5 -30 5 -30 0 0 -5 -13 -5 -30 0 -17 5 -30 5 -30
0 0 -5 -13 -5 -30 0 -19 5 -30 5 -30 -1 0 -6 -5 -7 -11 -4 -10 7 -102 10 -124
5 -5 -1 -13 -1 -17 0 -18 4 -136 3 -144 -2 -5 -3 -18 -2 -29 2 -11 4 -31 3
-45 -2 -14 -5 -27 -9 -30 -8 -3 2 -15 6 -27 11 -13 5 -23 5 -23 0 0 -9 -42 -7
-57 2 -5 3 -15 2 -22 -2 -7 -5 -27 -5 -44 -1 -18 3 -47 3 -64 -1 -18 -4 -33
-3 -33 1 0 5 -14 5 -30 0 -17 -5 -30 -5 -30 0 0 5 -13 5 -30 0 -17 -5 -32 -5
-35 0 -3 5 -16 5 -30 0 -15 -6 -27 -6 -30 0 -3 5 -15 6 -29 0 -12 -4 -29 -4
-36 0 -8 5 -21 5 -30 0 -9 -5 -22 -5 -29 -1 -7 5 -29 5 -50 1 -21 -4 -47 -3
-59 1 -12 5 -24 4 -27 -1 -3 -6 -15 -6 -29 0 -13 5 -27 6 -30 3 -8 -8 -76 -9
-76 -1 0 4 -14 3 -30 -2 -17 -5 -30 -5 -30 0 0 5 -13 5 -30 0 -17 -5 -30 -5
-30 0 0 5 -13 5 -30 0 -17 -5 -32 -5 -35 0 -3 5 -16 5 -30 0 -15 -6 -27 -6
-30 0 -3 5 -15 6 -29 0 -12 -4 -29 -4 -36 0 -8 5 -21 5 -30 0 -9 -5 -22 -5
-28 -1 -7 4 -35 5 -62 1 -27 -4 -55 -3 -62 1 -6 4 -19 4 -28 -1 -9 -5 -22 -5
-30 0 -8 5 -21 5 -30 0 -9 -5 -22 -5 -30 0 -8 5 -21 5 -30 0 -9 -5 -22 -5 -29
0 -8 4 -27 4 -42 0 -16 -5 -29 -5 -29 0 0 5 -13 5 -30 0 -17 -5 -30 -5 -30 0
0 5 -13 5 -30 0 -17 -5 -30 -6 -30 -2 0 4 -16 7 -35 7 -19 0 -35 -3 -35 -7 0
-4 -13 -3 -29 2 -15 4 -34 4 -42 0 -7 -5 -20 -5 -29 0 -9 5 -23 4 -32 -1 -10
-6 -19 -6 -22 0 -4 6 -18 6 -36 1 -17 -5 -30 -6 -30 -2 0 8 -128 7 -136 -1 -3
-3 -16 -2 -29 3 -13 5 -25 6 -28 4 -9 -9 -70 -10 -99 -3 -16 4 -28 4 -28 -1 0
-5 -13 -5 -30 0 -17 5 -30 5 -30 0 0 -5 -13 -5 -30 0 -17 5 -32 5 -35 0 -3 -5
-15 -6 -29 0 -12 4 -29 4 -36 0 -8 -5 -22 -4 -32 1 -12 6 -18 6 -18 0 0 -6
-11 -6 -30 -1 -17 5 -30 5 -30 0 0 -5 -13 -5 -30 0 -17 5 -30 5 -30 0 0 -5
-13 -5 -30 0 -17 5 -30 5 -30 0 0 -5 -13 -5 -30 0 -19 5 -30 5 -30 -1 0 -6 -5
-7 -11 -4 -10 7 -102 10 -124 5 -5 -1 -13 -1 -17 0 -19 4 -139 2 -144 -3 -3
-3 -16 -2 -28 2 -11 5 -30 5 -41 1 -18 -7 -65 -4 -73 4 -2 2 -19 0 -38 -4 -18
-4 -34 -4 -34 0 0 5 -13 5 -30 0 -17 -5 -30 -5 -30 0 0 5 -13 5 -30 0 -16 -5
-32 -5 -35 0 -3 4 -21 4 -40 0 -19 -4 -35 -4 -35 0 0 5 -13 5 -30 0 -17 -5
-30 -5 -30 0 0 5 -13 5 -30 0 -17 -5 -30 -5 -30 0 0 5 -13 5 -30 0 -16 -5 -30
-6 -30 -2 0 8 -159 6 -167 -2 -3 -2 -16 -1 -29 4 -14 6 -26 6 -29 0 -3 -6 -15
-6 -29 0 -13 5 -27 6 -30 3 -8 -8 -76 -9 -76 -1 0 4 -14 3 -30 -2 -17 -5 -30
-5 -30 0 0 5 -13 5 -30 0 -17 -5 -30 -5 -30 0 0 5 -13 5 -30 0 -17 -5 -32 -5
-35 0 -3 5 -16 5 -30 0 -15 -6 -27 -6 -30 0 -3 5 -15 6 -29 0 -12 -4 -29 -4
-36 0 -8 5 -21 5 -30 0 -9 -5 -22 -5 -29 -1 -7 5 -29 5 -50 1 -21 -4 -47 -3
-59 1 -12 5 -24 4 -27 -1 -3 -6 -15 -6 -29 0 -13 5 -27 6 -30 3 -8 -8 -76 -9
-76 -1 0 4 -13 3 -30 -2 -17 -5 -30 -5 -30 0 0 5 -13 5 -30 0 -17 -5 -30 -5
-30 0 0 5 -13 5 -30 0 -17 -5 -32 -5 -35 0 -3 5 -16 5 -30 0 -15 -6 -27 -6
-30 0 -3 5 -15 6 -29 0 -12 -4 -29 -4 -36 0 -8 5 -21 5 -30 0 -9 -5 -22 -5
-30 0 -7 4 -18 6 -24 4 -22 -8 -86 -10 -86 -3 0 4 -13 4 -30 -1 -17 -5 -32 -5
-35 0 -3 5 -15 6 -29 0 -12 -4 -29 -4 -36 0 -8 5 -21 5 -30 0 -9 -5 -22 -5
-29 0 -8 4 -27 4 -42 0 -16 -5 -29 -5 -29 0 0 5 -13 5 -30 0 -17 -5 -30 -5
-30 0 0 5 -13 5 -30 0 -17 -5 -30 -5 -30 0 0 5 -13 5 -30 0 -16 -5 -30 -6 -30
-2 0 4 -16 7 -35 7 -19 0 -35 -4 -35 -8 0 -5 -5 -5 -10 -2 -9 6 -31 6 -120 5
-8 0 -48 0 -88 1 -39 1 -75 0 -78 -4 -3 -3 -16 -2 -29 3 -13 5 -25 6 -28 4 -9
-9 -70 -10 -99 -3 -16 4 -28 4 -28 -1 0 -5 -13 -5 -30 0 -17 5 -30 5 -30 0 0
-5 -13 -5 -30 0 -17 5 -30 5 -30 0 0 -5 -13 -5 -30 0 -17 5 -30 5 -30 0 0 -5
-13 -5 -30 0 -17 5 -30 5 -30 0 0 -5 -13 -5 -30 0 -17 5 -30 5 -30 0 0 -5 -13
-5 -30 0 -17 5 -30 5 -30 0 0 -5 -13 -5 -30 0 -17 5 -30 5 -30 0 0 -5 -13 -5
-30 0 -19 5 -30 5 -30 -1 0 -6 -5 -7 -11 -4 -10 7 -102 10 -124 5 -5 -1 -13
-1 -17 0 -19 4 -139 2 -144 -3 -3 -3 -16 -2 -29 3 -13 5 -25 6 -28 3 -8 -7
-106 -8 -113 0 -4 3 -14 2 -23 -3 -10 -5 -23 -5 -31 0 -8 5 -21 5 -30 0 -9 -5
-22 -5 -30 0 -8 5 -21 5 -30 0 -9 -5 -22 -5 -29 0 -8 4 -27 4 -42 0 -16 -5
-29 -5 -29 0 0 5 -13 5 -30 0 -17 -5 -30 -5 -30 0 0 5 -13 5 -30 0 -16 -5 -30
-6 -30 -2 0 4 -16 7 -35 7 -19 0 -35 -3 -35 -7 0 -4 -13 -3 -29 2 -15 4 -34 4
-42 0 -7 -5 -20 -5 -29 0 -9 5 -22 5 -30 0 -7 -4 -22 -5 -34 -1 -11 5 -35 5
-53 1 -18 -5 -33 -4 -33 0 0 5 -13 5 -30 0 -17 -5 -30 -5 -30 0 0 5 -13 5 -30
0 -16 -5 -32 -5 -35 0 -3 4 -21 4 -40 0 -19 -4 -35 -4 -35 0 0 5 -14 5 -30 0
-17 -5 -30 -5 -30 0 0 5 -13 5 -30 0 -16 -5 -30 -6 -30 -2 0 4 -16 7 -35 7
-19 0 -35 -3 -35 -7 0 -4 -13 -3 -30 2 -18 5 -32 5 -36 -1 -3 -5 -10 -7 -15
-4 -15 10 -90 11 -95 3 -3 -5 -10 -6 -15 -2 -13 8 -157 9 -165 1 -3 -3 -16 -2
-29 3 -13 5 -25 6 -28 4 -9 -9 -70 -10 -99 -3 -16 4 -28 4 -28 -1 0 -5 -13 -5
-30 0 -17 5 -30 5 -30 0 0 -5 -13 -5 -30 0 -17 5 -30 5 -30 0 0 -5 -13 -5 -30
0 -17 5 -30 5 -30 0 0 -5 -13 -5 -30 0 -17 5 -30 5 -30 0 0 -5 -13 -5 -30 0
-17 5 -30 5 -30 0 0 -5 -13 -5 -30 0 -17 5 -30 5 -30 0 0 -5 -13 -5 -30 0 -17
5 -30 5 -30 0 0 -5 -13 -5 -30 0 -19 5 -30 5 -30 -1 0 -6 -5 -7 -11 -4 -10 7
-102 10 -124 5 -5 -1 -13 -1 -17 0 -19 4 -139 2 -144 -3 -3 -3 -16 -2 -29 3
-13 5 -25 6 -28 3 -8 -7 -106 -8 -113 0 -4 3 -14 2 -23 -3 -10 -5 -23 -5 -31
0 -8 5 -21 5 -30 0 -9 -5 -22 -5 -30 0 -8 5 -21 5 -30 0 -9 -5 -22 -5 -29 0
-8 4 -27 4 -42 0 -16 -5 -29 -5 -29 0 0 5 -13 5 -30 0 -17 -5 -30 -5 -30 0 0
5 -13 5 -30 0 -16 -5 -30 -6 -30 -2 0 4 -16 7 -35 7 -19 0 -35 -3 -35 -7 0 -4
-13 -3 -30 2 -17 5 -32 5 -35 0 -3 -5 -15 -6 -27 -1 -12 4 -38 5 -59 1 -21 -4
-43 -4 -50 1 -7 4 -20 4 -29 -1 -9 -5 -22 -5 -30 0 -8 5 -21 5 -30 0 -9 -5
-22 -5 -30 0 -8 5 -21 5 -30 0 -9 -5 -22 -5 -29 0 -8 4 -27 4 -42 0 -16 -5
-29 -5 -29 0 0 5 -13 5 -30 0 -17 -5 -30 -5 -30 0 0 5 -13 5 -30 0 -16 -5 -30
-6 -30 -2 0 4 -16 7 -35 7 -19 0 -35 -3 -35 -7 0 -4 -13 -3 -29 2 -15 4 -34 4
-42 0 -7 -5 -17 -6 -23 -3 -9 6 -79 8 -101 3 -5 -1 -13 -1 -17 0 -19 4 -139 2
-144 -3 -3 -3 -16 -2 -29 3 -13 5 -25 6 -28 4 -9 -9 -70 -10 -100 -3 -15 4
-27 4 -27 -1 0 -5 -13 -5 -30 0 -17 5 -30 5 -30 0 0 -5 -13 -5 -30 0 -17 5
-30 5 -30 0 0 -5 -13 -5 -30 0 -17 5 -32 5 -35 0 -3 -5 -16 -5 -30 0 -15 6
-25 6 -25 0 0 -5 -12 -5 -30 0 -17 5 -30 5 -30 0 0 -5 -13 -5 -30 0 -17 5 -30
5 -30 0 0 -5 -13 -5 -30 0 -17 5 -30 5 -30 0 0 -5 -13 -5 -30 0 -19 5 -30 5
-30 -1 0 -6 -5 -7 -11 -4 -10 7 -102 10 -124 5 -5 -1 -13 -1 -17 0 -19 4 -139
2 -144 -3 -3 -3 -16 -2 -29 3 -13 5 -25 6 -28 3 -8 -7 -106 -8 -113 0 -4 3
-14 2 -23 -3 -10 -5 -23 -5 -31 0 -8 5 -21 5 -30 0 -9 -5 -22 -5 -30 0 -8 5
-21 5 -30 0 -9 -5 -22 -5 -29 0 -8 4 -27 4 -42 0 -16 -5 -29 -5 -29 0 0 5 -13
5 -30 0 -17 -5 -30 -5 -30 0 0 5 -13 5 -30 0 -17 -5 -30 -5 -30 0 0 5 -13 5
-30 0 -16 -5 -30 -6 -30 -2 0 4 -16 7 -35 7 -19 0 -35 -3 -35 -7 0 -3 -12 -3
-27 1 -16 4 -44 4 -65 1 -20 -4 -42 -4 -49 1 -7 4 -20 4 -29 -1 -9 -5 -22 -5
-30 0 -8 5 -21 5 -30 0 -9 -5 -22 -5 -30 0 -8 5 -21 5 -30 0 -9 -5 -22 -5 -29
0 -8 4 -27 4 -42 0 -16 -5 -29 -5 -29 0 0 5 -13 5 -30 0 -17 -5 -30 -5 -30 0
0 5 -13 5 -30 0 -16 -5 -30 -6 -30 -2 0 4 -16 7 -35 7 -19 0 -35 -3 -35 -7 0
-4 -13 -3 -28 2 -16 4 -35 4 -43 -1 -8 -4 -21 -4 -29 1 -7 4 -24 4 -37 -1 -12
-5 -23 -5 -23 -1 0 6 -65 7 -80 2 -3 -2 -9 -1 -15 0 -25 5 -95 3 -101 -2 -3
-4 -16 -3 -29 2 -13 5 -25 6 -28 4 -9 -9 -70 -10 -99 -3 -16 4 -28 4 -28 -1 0
-5 -13 -5 -30 0 -17 5 -30 5 -30 0 0 -5 -13 -5 -29 0 -15 4 -34 4 -42 0 -7 -5
-20 -5 -28 -1 -9 5 -25 5 -36 1 -11 -4 -26 -3 -32 2 -9 7 -13 7 -13 0 0 -7
-10 -8 -30 -2 -17 5 -30 5 -30 0 0 -5 -13 -5 -30 0 -17 5 -30 5 -30 0 0 -5
-13 -5 -30 0 -17 5 -30 5 -30 0 0 -5 -13 -5 -30 0 -19 5 -30 5 -30 -1 0 -6 -5
-7 -11 -4 -10 7 -102 10 -124 5 -5 -1 -13 -1 -17 0 -19 4 -139 2 -144 -3 -3
-3 -16 -2 -28 2 -11 5 -31 5 -43 0z"/>
</g>
</svg>
